<svg width="780" height="616" viewBox="0 0 780 616" fill="none" xmlns="http://www.w3.org/2000/svg">
<g filter="url(#filter0_d_0_6286)">
<rect x="8" y="8" width="764" height="600" rx="8" fill="white"/>
<rect x="8.5" y="8.5" width="763" height="599" rx="7.5" stroke="#EDEDED"/>
</g>
<path d="M31.88 56V42H38C39.52 42 40.8533 42.2933 42 42.88C43.1467 43.4667 44.04 44.28 44.68 45.32C45.32 46.36 45.64 47.5867 45.64 49C45.64 50.4 45.32 51.6267 44.68 52.68C44.04 53.72 43.1467 54.5333 42 55.12C40.8533 55.7067 39.52 56 38 56H31.88ZM34.48 53.8H37.88C38.9333 53.8 39.84 53.6 40.6 53.2C41.3733 52.8 41.9667 52.24 42.38 51.52C42.8067 50.8 43.02 49.96 43.02 49C43.02 48.0267 42.8067 47.1867 42.38 46.48C41.9667 45.76 41.3733 45.2 40.6 44.8C39.84 44.4 38.9333 44.2 37.88 44.2H34.48V53.8ZM53.1834 56.14C51.9968 56.14 50.9568 55.9067 50.0634 55.44C49.1834 54.96 48.4968 54.3067 48.0034 53.48C47.5234 52.6533 47.2834 51.7133 47.2834 50.66C47.2834 49.5933 47.5168 48.6533 47.9834 47.84C48.4634 47.0133 49.1168 46.3667 49.9434 45.9C50.7834 45.4333 51.7368 45.2 52.8034 45.2C53.8434 45.2 54.7701 45.4267 55.5834 45.88C56.3968 46.3333 57.0368 46.9733 57.5034 47.8C57.9701 48.6267 58.2034 49.6 58.2034 50.72C58.2034 50.8267 58.1968 50.9467 58.1834 51.08C58.1834 51.2133 58.1768 51.34 58.1634 51.46H49.2634V49.8H56.8434L55.8634 50.32C55.8768 49.7067 55.7501 49.1667 55.4834 48.7C55.2168 48.2333 54.8501 47.8667 54.3834 47.6C53.9301 47.3333 53.4034 47.2 52.8034 47.2C52.1901 47.2 51.6501 47.3333 51.1834 47.6C50.7301 47.8667 50.3701 48.24 50.1034 48.72C49.8501 49.1867 49.7234 49.74 49.7234 50.38V50.78C49.7234 51.42 49.8701 51.9867 50.1634 52.48C50.4568 52.9733 50.8701 53.3533 51.4034 53.62C51.9368 53.8867 52.5501 54.02 53.2434 54.02C53.8434 54.02 54.3834 53.9267 54.8634 53.74C55.3434 53.5533 55.7701 53.26 56.1434 52.86L57.4834 54.4C57.0034 54.96 56.3968 55.3933 55.6634 55.7C54.9434 55.9933 54.1168 56.14 53.1834 56.14ZM74.0848 45.2C74.9382 45.2 75.6915 45.3667 76.3448 45.7C77.0115 46.0333 77.5315 46.5467 77.9048 47.24C78.2782 47.92 78.4648 48.8 78.4648 49.88V56H75.9648V50.2C75.9648 49.2533 75.7582 48.5467 75.3448 48.08C74.9315 47.6133 74.3382 47.38 73.5648 47.38C73.0182 47.38 72.5315 47.5 72.1048 47.74C71.6915 47.98 71.3648 48.3333 71.1248 48.8C70.8982 49.2667 70.7848 49.86 70.7848 50.58V56H68.2848V50.2C68.2848 49.2533 68.0782 48.5467 67.6648 48.08C67.2515 47.6133 66.6582 47.38 65.8848 47.38C65.3382 47.38 64.8515 47.5 64.4248 47.74C64.0115 47.98 63.6848 48.3333 63.4448 48.8C63.2182 49.2667 63.1048 49.86 63.1048 50.58V56H60.6048V45.32H62.9848V48.16L62.5648 47.32C62.9248 46.6267 63.4448 46.1 64.1248 45.74C64.8182 45.38 65.6048 45.2 66.4848 45.2C67.4848 45.2 68.3515 45.4467 69.0848 45.94C69.8315 46.4333 70.3248 47.18 70.5648 48.18L69.5848 47.84C69.9315 47.04 70.5048 46.4 71.3048 45.92C72.1048 45.44 73.0315 45.2 74.0848 45.2ZM88.2395 56V53.84L88.0995 53.38V49.6C88.0995 48.8667 87.8795 48.3 87.4395 47.9C86.9995 47.4867 86.3329 47.28 85.4395 47.28C84.8395 47.28 84.2462 47.3733 83.6595 47.56C83.0862 47.7467 82.5995 48.0067 82.1995 48.34L81.2195 46.52C81.7929 46.08 82.4729 45.7533 83.2595 45.54C84.0595 45.3133 84.8862 45.2 85.7395 45.2C87.2862 45.2 88.4795 45.5733 89.3195 46.32C90.1729 47.0533 90.5995 48.1933 90.5995 49.74V56H88.2395ZM84.8795 56.14C84.0795 56.14 83.3795 56.0067 82.7795 55.74C82.1795 55.46 81.7129 55.08 81.3795 54.6C81.0595 54.1067 80.8995 53.5533 80.8995 52.94C80.8995 52.34 81.0395 51.8 81.3195 51.32C81.6129 50.84 82.0862 50.46 82.7395 50.18C83.3929 49.9 84.2595 49.76 85.3395 49.76H88.4395V51.42H85.5195C84.6662 51.42 84.0929 51.56 83.7995 51.84C83.5062 52.1067 83.3595 52.44 83.3595 52.84C83.3595 53.2933 83.5395 53.6533 83.8995 53.92C84.2595 54.1867 84.7595 54.32 85.3995 54.32C86.0129 54.32 86.5595 54.18 87.0395 53.9C87.5329 53.62 87.8862 53.2067 88.0995 52.66L88.5195 54.16C88.2795 54.7867 87.8462 55.2733 87.2195 55.62C86.6062 55.9667 85.8262 56.14 84.8795 56.14ZM99.868 45.2C100.721 45.2 101.481 45.3667 102.148 45.7C102.828 46.0333 103.361 46.5467 103.748 47.24C104.135 47.92 104.328 48.8 104.328 49.88V56H101.828V50.2C101.828 49.2533 101.601 48.5467 101.148 48.08C100.708 47.6133 100.088 47.38 99.288 47.38C98.7013 47.38 98.1813 47.5 97.728 47.74C97.2746 47.98 96.9213 48.34 96.668 48.82C96.428 49.2867 96.308 49.88 96.308 50.6V56H93.808V45.32H96.188V48.2L95.768 47.32C96.1413 46.64 96.6813 46.12 97.388 45.76C98.108 45.3867 98.9346 45.2 99.868 45.2ZM112.039 56.14C111.012 56.14 110.086 55.9133 109.259 55.46C108.446 54.9933 107.806 54.3533 107.339 53.54C106.872 52.7267 106.639 51.7667 106.639 50.66C106.639 49.5533 106.872 48.5933 107.339 47.78C107.806 46.9667 108.446 46.3333 109.259 45.88C110.086 45.4267 111.012 45.2 112.039 45.2C112.932 45.2 113.732 45.4 114.439 45.8C115.146 46.1867 115.706 46.78 116.119 47.58C116.532 48.38 116.739 49.4067 116.739 50.66C116.739 51.9 116.539 52.9267 116.139 53.74C115.739 54.54 115.186 55.14 114.479 55.54C113.772 55.94 112.959 56.14 112.039 56.14ZM112.339 54C112.939 54 113.472 53.8667 113.939 53.6C114.419 53.3333 114.799 52.9467 115.079 52.44C115.372 51.9333 115.519 51.34 115.519 50.66C115.519 49.9667 115.372 49.3733 115.079 48.88C114.799 48.3733 114.419 47.9867 113.939 47.72C113.472 47.4533 112.939 47.32 112.339 47.32C111.739 47.32 111.199 47.4533 110.719 47.72C110.252 47.9867 109.872 48.3733 109.579 48.88C109.299 49.3733 109.159 49.9667 109.159 50.66C109.159 51.34 109.299 51.9333 109.579 52.44C109.872 52.9467 110.252 53.3333 110.719 53.6C111.199 53.8667 111.739 54 112.339 54ZM115.579 56V53.48L115.679 50.64L115.479 47.8V41.16H117.959V56H115.579ZM131.357 56.2C130.263 56.2 129.217 56.0467 128.217 55.74C127.217 55.42 126.423 55.0133 125.837 54.52L126.737 52.5C127.297 52.94 127.99 53.3067 128.817 53.6C129.643 53.8933 130.49 54.04 131.357 54.04C132.09 54.04 132.683 53.96 133.137 53.8C133.59 53.64 133.923 53.4267 134.137 53.16C134.35 52.88 134.457 52.5667 134.457 52.22C134.457 51.7933 134.303 51.4533 133.997 51.2C133.69 50.9333 133.29 50.7267 132.797 50.58C132.317 50.42 131.777 50.2733 131.177 50.14C130.59 50.0067 129.997 49.8533 129.397 49.68C128.81 49.4933 128.27 49.26 127.777 48.98C127.297 48.6867 126.903 48.3 126.597 47.82C126.29 47.34 126.137 46.7267 126.137 45.98C126.137 45.22 126.337 44.5267 126.737 43.9C127.15 43.26 127.77 42.7533 128.597 42.38C129.437 41.9933 130.497 41.8 131.777 41.8C132.617 41.8 133.45 41.9067 134.277 42.12C135.103 42.3333 135.823 42.64 136.437 43.04L135.617 45.06C134.99 44.6867 134.343 44.4133 133.677 44.24C133.01 44.0533 132.37 43.96 131.757 43.96C131.037 43.96 130.45 44.0467 129.997 44.22C129.557 44.3933 129.23 44.62 129.017 44.9C128.817 45.18 128.717 45.5 128.717 45.86C128.717 46.2867 128.863 46.6333 129.157 46.9C129.463 47.1533 129.857 47.3533 130.337 47.5C130.83 47.6467 131.377 47.7933 131.977 47.94C132.577 48.0733 133.17 48.2267 133.757 48.4C134.357 48.5733 134.897 48.8 135.377 49.08C135.87 49.36 136.263 49.74 136.557 50.22C136.863 50.7 137.017 51.3067 137.017 52.04C137.017 52.7867 136.81 53.48 136.397 54.12C135.997 54.7467 135.377 55.2533 134.537 55.64C133.697 56.0133 132.637 56.2 131.357 56.2ZM144.375 56.14C143.188 56.14 142.148 55.9067 141.255 55.44C140.375 54.96 139.688 54.3067 139.195 53.48C138.715 52.6533 138.475 51.7133 138.475 50.66C138.475 49.5933 138.708 48.6533 139.175 47.84C139.655 47.0133 140.308 46.3667 141.135 45.9C141.975 45.4333 142.928 45.2 143.995 45.2C145.035 45.2 145.962 45.4267 146.775 45.88C147.588 46.3333 148.228 46.9733 148.695 47.8C149.162 48.6267 149.395 49.6 149.395 50.72C149.395 50.8267 149.388 50.9467 149.375 51.08C149.375 51.2133 149.368 51.34 149.355 51.46H140.455V49.8H148.035L147.055 50.32C147.068 49.7067 146.942 49.1667 146.675 48.7C146.408 48.2333 146.042 47.8667 145.575 47.6C145.122 47.3333 144.595 47.2 143.995 47.2C143.382 47.2 142.842 47.3333 142.375 47.6C141.922 47.8667 141.562 48.24 141.295 48.72C141.042 49.1867 140.915 49.74 140.915 50.38V50.78C140.915 51.42 141.062 51.9867 141.355 52.48C141.648 52.9733 142.062 53.3533 142.595 53.62C143.128 53.8867 143.742 54.02 144.435 54.02C145.035 54.02 145.575 53.9267 146.055 53.74C146.535 53.5533 146.962 53.26 147.335 52.86L148.675 54.4C148.195 54.96 147.588 55.3933 146.855 55.7C146.135 55.9933 145.308 56.14 144.375 56.14ZM156.636 60.02C155.65 60.02 154.683 59.8867 153.736 59.62C152.803 59.3667 152.036 58.9933 151.436 58.5L152.556 56.62C153.023 57.0067 153.61 57.3133 154.316 57.54C155.036 57.78 155.763 57.9 156.496 57.9C157.67 57.9 158.53 57.6267 159.076 57.08C159.623 56.5467 159.896 55.74 159.896 54.66V52.76L160.096 50.34L160.016 47.92V45.32H162.396V54.38C162.396 56.3133 161.903 57.7333 160.916 58.64C159.93 59.56 158.503 60.02 156.636 60.02ZM156.316 55.52C155.303 55.52 154.383 55.3067 153.556 54.88C152.743 54.44 152.096 53.8333 151.616 53.06C151.15 52.2867 150.916 51.38 150.916 50.34C150.916 49.3133 151.15 48.4133 151.616 47.64C152.096 46.8667 152.743 46.2667 153.556 45.84C154.383 45.4133 155.303 45.2 156.316 45.2C157.223 45.2 158.036 45.38 158.756 45.74C159.476 46.1 160.05 46.66 160.476 47.42C160.916 48.18 161.136 49.1533 161.136 50.34C161.136 51.5267 160.916 52.5067 160.476 53.28C160.05 54.04 159.476 54.6067 158.756 54.98C158.036 55.34 157.223 55.52 156.316 55.52ZM156.696 53.4C157.323 53.4 157.883 53.2733 158.376 53.02C158.87 52.7533 159.25 52.3933 159.516 51.94C159.796 51.4733 159.936 50.94 159.936 50.34C159.936 49.74 159.796 49.2133 159.516 48.76C159.25 48.2933 158.87 47.94 158.376 47.7C157.883 47.4467 157.323 47.32 156.696 47.32C156.07 47.32 155.503 47.4467 154.996 47.7C154.503 47.94 154.116 48.2933 153.836 48.76C153.57 49.2133 153.436 49.74 153.436 50.34C153.436 50.94 153.57 51.4733 153.836 51.94C154.116 52.3933 154.503 52.7533 154.996 53.02C155.503 53.2733 156.07 53.4 156.696 53.4ZM179.163 45.2C180.016 45.2 180.77 45.3667 181.423 45.7C182.09 46.0333 182.61 46.5467 182.983 47.24C183.356 47.92 183.543 48.8 183.543 49.88V56H181.043V50.2C181.043 49.2533 180.836 48.5467 180.423 48.08C180.01 47.6133 179.416 47.38 178.643 47.38C178.096 47.38 177.61 47.5 177.183 47.74C176.77 47.98 176.443 48.3333 176.203 48.8C175.976 49.2667 175.863 49.86 175.863 50.58V56H173.363V50.2C173.363 49.2533 173.156 48.5467 172.743 48.08C172.33 47.6133 171.736 47.38 170.963 47.38C170.416 47.38 169.93 47.5 169.503 47.74C169.09 47.98 168.763 48.3333 168.523 48.8C168.296 49.2667 168.183 49.86 168.183 50.58V56H165.683V45.32H168.063V48.16L167.643 47.32C168.003 46.6267 168.523 46.1 169.203 45.74C169.896 45.38 170.683 45.2 171.563 45.2C172.563 45.2 173.43 45.4467 174.163 45.94C174.91 46.4333 175.403 47.18 175.643 48.18L174.663 47.84C175.01 47.04 175.583 46.4 176.383 45.92C177.183 45.44 178.11 45.2 179.163 45.2ZM191.777 56.14C190.591 56.14 189.551 55.9067 188.657 55.44C187.777 54.96 187.091 54.3067 186.597 53.48C186.117 52.6533 185.877 51.7133 185.877 50.66C185.877 49.5933 186.111 48.6533 186.577 47.84C187.057 47.0133 187.711 46.3667 188.537 45.9C189.377 45.4333 190.331 45.2 191.397 45.2C192.437 45.2 193.364 45.4267 194.177 45.88C194.991 46.3333 195.631 46.9733 196.097 47.8C196.564 48.6267 196.797 49.6 196.797 50.72C196.797 50.8267 196.791 50.9467 196.777 51.08C196.777 51.2133 196.771 51.34 196.757 51.46H187.857V49.8H195.437L194.457 50.32C194.471 49.7067 194.344 49.1667 194.077 48.7C193.811 48.2333 193.444 47.8667 192.977 47.6C192.524 47.3333 191.997 47.2 191.397 47.2C190.784 47.2 190.244 47.3333 189.777 47.6C189.324 47.8667 188.964 48.24 188.697 48.72C188.444 49.1867 188.317 49.74 188.317 50.38V50.78C188.317 51.42 188.464 51.9867 188.757 52.48C189.051 52.9733 189.464 53.3533 189.997 53.62C190.531 53.8867 191.144 54.02 191.837 54.02C192.437 54.02 192.977 53.9267 193.457 53.74C193.937 53.5533 194.364 53.26 194.737 52.86L196.077 54.4C195.597 54.96 194.991 55.3933 194.257 55.7C193.537 55.9933 192.711 56.14 191.777 56.14ZM205.259 45.2C206.112 45.2 206.872 45.3667 207.539 45.7C208.219 46.0333 208.752 46.5467 209.139 47.24C209.525 47.92 209.719 48.8 209.719 49.88V56H207.219V50.2C207.219 49.2533 206.992 48.5467 206.539 48.08C206.099 47.6133 205.479 47.38 204.679 47.38C204.092 47.38 203.572 47.5 203.119 47.74C202.665 47.98 202.312 48.34 202.059 48.82C201.819 49.2867 201.699 49.88 201.699 50.6V56H199.199V45.32H201.579V48.2L201.159 47.32C201.532 46.64 202.072 46.12 202.779 45.76C203.499 45.3867 204.325 45.2 205.259 45.2ZM216.91 56.14C215.737 56.14 214.83 55.84 214.19 55.24C213.55 54.6267 213.23 53.7267 213.23 52.54V42.96H215.73V52.48C215.73 52.9867 215.857 53.38 216.11 53.66C216.377 53.94 216.743 54.08 217.21 54.08C217.77 54.08 218.237 53.9333 218.61 53.64L219.31 55.42C219.017 55.66 218.657 55.84 218.23 55.96C217.803 56.08 217.363 56.14 216.91 56.14ZM211.47 47.4V45.4H218.59V47.4H211.47ZM227.947 56V53.84L227.807 53.38V49.6C227.807 48.8667 227.587 48.3 227.147 47.9C226.707 47.4867 226.04 47.28 225.147 47.28C224.547 47.28 223.953 47.3733 223.367 47.56C222.793 47.7467 222.307 48.0067 221.907 48.34L220.927 46.52C221.5 46.08 222.18 45.7533 222.967 45.54C223.767 45.3133 224.593 45.2 225.447 45.2C226.993 45.2 228.187 45.5733 229.027 46.32C229.88 47.0533 230.307 48.1933 230.307 49.74V56H227.947ZM224.587 56.14C223.787 56.14 223.087 56.0067 222.487 55.74C221.887 55.46 221.42 55.08 221.087 54.6C220.767 54.1067 220.607 53.5533 220.607 52.94C220.607 52.34 220.747 51.8 221.027 51.32C221.32 50.84 221.793 50.46 222.447 50.18C223.1 49.9 223.967 49.76 225.047 49.76H228.147V51.42H225.227C224.373 51.42 223.8 51.56 223.507 51.84C223.213 52.1067 223.067 52.44 223.067 52.84C223.067 53.2933 223.247 53.6533 223.607 53.92C223.967 54.1867 224.467 54.32 225.107 54.32C225.72 54.32 226.267 54.18 226.747 53.9C227.24 53.62 227.593 53.2067 227.807 52.66L228.227 54.16C227.987 54.7867 227.553 55.2733 226.927 55.62C226.313 55.9667 225.533 56.14 224.587 56.14ZM237.535 56.14C236.362 56.14 235.455 55.84 234.815 55.24C234.175 54.6267 233.855 53.7267 233.855 52.54V42.96H236.355V52.48C236.355 52.9867 236.482 53.38 236.735 53.66C237.002 53.94 237.368 54.08 237.835 54.08C238.395 54.08 238.862 53.9333 239.235 53.64L239.935 55.42C239.642 55.66 239.282 55.84 238.855 55.96C238.428 56.08 237.988 56.14 237.535 56.14ZM232.095 47.4V45.4H239.215V47.4H232.095ZM241.992 56V45.32H244.492V56H241.992ZM243.252 43.56C242.785 43.56 242.398 43.4133 242.092 43.12C241.798 42.8267 241.652 42.4733 241.652 42.06C241.652 41.6333 241.798 41.28 242.092 41C242.398 40.7067 242.785 40.56 243.252 40.56C243.718 40.56 244.098 40.7 244.392 40.98C244.698 41.2467 244.852 41.5867 244.852 42C244.852 42.44 244.705 42.8133 244.412 43.12C244.118 43.4133 243.732 43.56 243.252 43.56ZM252.573 56.14C251.479 56.14 250.506 55.9067 249.653 55.44C248.799 54.96 248.126 54.3067 247.633 53.48C247.139 52.6533 246.893 51.7133 246.893 50.66C246.893 49.5933 247.139 48.6533 247.633 47.84C248.126 47.0133 248.799 46.3667 249.653 45.9C250.506 45.4333 251.479 45.2 252.573 45.2C253.679 45.2 254.659 45.4333 255.513 45.9C256.379 46.3667 257.053 47.0067 257.533 47.82C258.026 48.6333 258.273 49.58 258.273 50.66C258.273 51.7133 258.026 52.6533 257.533 53.48C257.053 54.3067 256.379 54.96 255.513 55.44C254.659 55.9067 253.679 56.14 252.573 56.14ZM252.573 54C253.186 54 253.733 53.8667 254.213 53.6C254.693 53.3333 255.066 52.9467 255.333 52.44C255.613 51.9333 255.753 51.34 255.753 50.66C255.753 49.9667 255.613 49.3733 255.333 48.88C255.066 48.3733 254.693 47.9867 254.213 47.72C253.733 47.4533 253.193 47.32 252.593 47.32C251.979 47.32 251.433 47.4533 250.953 47.72C250.486 47.9867 250.113 48.3733 249.833 48.88C249.553 49.3733 249.413 49.9667 249.413 50.66C249.413 51.34 249.553 51.9333 249.833 52.44C250.113 52.9467 250.486 53.3333 250.953 53.6C251.433 53.8667 251.973 54 252.573 54ZM266.723 45.2C267.577 45.2 268.337 45.3667 269.003 45.7C269.683 46.0333 270.217 46.5467 270.603 47.24C270.99 47.92 271.183 48.8 271.183 49.88V56H268.683V50.2C268.683 49.2533 268.457 48.5467 268.003 48.08C267.563 47.6133 266.943 47.38 266.143 47.38C265.557 47.38 265.037 47.5 264.583 47.74C264.13 47.98 263.777 48.34 263.523 48.82C263.283 49.2867 263.163 49.88 263.163 50.6V56H260.663V45.32H263.043V48.2L262.623 47.32C262.997 46.64 263.537 46.12 264.243 45.76C264.963 45.3867 265.79 45.2 266.723 45.2Z" fill="#364C61"/>
<path d="M75 180V550H751" stroke="#D5D9DD" stroke-width="2"/>
<path d="M56.71 535.701C56.71 533.855 57.0193 532.415 57.638 531.381C58.2673 530.335 59.3447 529.813 60.87 529.813C62.3953 529.813 63.4673 530.335 64.086 531.381C64.7153 532.415 65.03 533.855 65.03 535.701C65.03 537.567 64.7153 539.029 64.086 540.085C63.4673 541.13 62.3953 541.653 60.87 541.653C59.3447 541.653 58.2673 541.13 57.638 540.085C57.0193 539.029 56.71 537.567 56.71 535.701ZM63.238 535.701C63.238 534.837 63.1793 534.106 63.062 533.509C62.9553 532.911 62.7313 532.426 62.39 532.053C62.0487 531.669 61.542 531.477 60.87 531.477C60.198 531.477 59.6913 531.669 59.35 532.053C59.0087 532.426 58.7793 532.911 58.662 533.509C58.5553 534.106 58.502 534.837 58.502 535.701C58.502 536.597 58.5553 537.349 58.662 537.957C58.7687 538.565 58.9927 539.055 59.334 539.429C59.686 539.802 60.198 539.989 60.87 539.989C61.542 539.989 62.0487 539.802 62.39 539.429C62.742 539.055 62.9713 538.565 63.078 537.957C63.1847 537.349 63.238 536.597 63.238 535.701Z" fill="#364C61"/>
<path d="M40.7513 448.608V446.944H44.0793V458.608H42.2393V448.608H40.7513ZM46.585 452.624C46.585 450.779 46.8943 449.339 47.513 448.304C48.1423 447.259 49.2197 446.736 50.745 446.736C52.2703 446.736 53.3423 447.259 53.961 448.304C54.5903 449.339 54.905 450.779 54.905 452.624C54.905 454.491 54.5903 455.952 53.961 457.008C53.3423 458.054 52.2703 458.576 50.745 458.576C49.2197 458.576 48.1423 458.054 47.513 457.008C46.8943 455.952 46.585 454.491 46.585 452.624ZM53.113 452.624C53.113 451.76 53.0543 451.03 52.937 450.432C52.8303 449.835 52.6063 449.35 52.265 448.976C51.9237 448.592 51.417 448.4 50.745 448.4C50.073 448.4 49.5663 448.592 49.225 448.976C48.8837 449.35 48.6543 449.835 48.537 450.432C48.4303 451.03 48.377 451.76 48.377 452.624C48.377 453.52 48.4303 454.272 48.537 454.88C48.6437 455.488 48.8677 455.979 49.209 456.352C49.561 456.726 50.073 456.912 50.745 456.912C51.417 456.912 51.9237 456.726 52.265 456.352C52.617 455.979 52.8463 455.488 52.953 454.88C53.0597 454.272 53.113 453.52 53.113 452.624ZM63.203 458.608L58.899 453.632V458.608H57.075V447.488H58.899V452.56L63.219 447.488H65.507L60.675 453.056L65.587 458.608H63.203Z" fill="#364C61"/>
<path d="M40.7825 366.67V365.006H44.1105V376.67H42.2705V366.67H40.7825ZM54.1363 366.574H48.7763V369.758C49.0003 369.46 49.3309 369.209 49.7682 369.006C50.2163 368.804 50.6909 368.702 51.1923 368.702C52.0883 368.702 52.8136 368.894 53.3683 369.278C53.9336 369.662 54.3336 370.148 54.5683 370.734C54.8136 371.321 54.9363 371.94 54.9363 372.59C54.9363 373.38 54.7816 374.084 54.4722 374.702C54.1736 375.31 53.7203 375.79 53.1123 376.142C52.5149 376.494 51.7789 376.67 50.9043 376.67C49.7416 376.67 48.8083 376.382 48.1043 375.806C47.4003 375.23 46.9789 374.468 46.8403 373.518H48.6163C48.7336 374.02 48.9949 374.42 49.4003 374.718C49.8056 375.006 50.3123 375.15 50.9203 375.15C51.6776 375.15 52.2429 374.921 52.6163 374.462C53.0003 374.004 53.1923 373.396 53.1923 372.638C53.1923 371.87 53.0003 371.284 52.6163 370.878C52.2323 370.462 51.6669 370.254 50.9203 370.254C50.3976 370.254 49.9549 370.388 49.5923 370.654C49.2403 370.91 48.9843 371.262 48.8243 371.71H47.0963V364.974H54.1363V366.574ZM63.203 376.67L58.899 371.694V376.67H57.075V365.55H58.899V370.622L63.219 365.55H65.507L60.675 371.118L65.587 376.67H63.203Z" fill="#364C61"/>
<path d="M38.3586 289.977C39.3826 289.091 40.188 288.366 40.7746 287.801C41.372 287.225 41.868 286.627 42.2626 286.009C42.6573 285.39 42.8546 284.771 42.8546 284.153C42.8546 283.513 42.7 283.011 42.3906 282.649C42.092 282.286 41.6173 282.105 40.9666 282.105C40.3373 282.105 39.8466 282.307 39.4946 282.713C39.1533 283.107 38.972 283.641 38.9506 284.313H37.1906C37.2226 283.097 37.5853 282.169 38.2786 281.529C38.9826 280.878 39.8733 280.553 40.9506 280.553C42.1133 280.553 43.02 280.873 43.6706 281.513C44.332 282.153 44.6626 283.006 44.6626 284.073C44.6626 284.841 44.4653 285.582 44.0706 286.297C43.6866 287.001 43.2226 287.635 42.6786 288.201C42.1453 288.755 41.4626 289.401 40.6306 290.137L39.9106 290.777H44.9826V292.297H37.2066V290.969L38.3586 289.977ZM46.585 286.473C46.585 284.627 46.8943 283.187 47.513 282.153C48.1423 281.107 49.2197 280.585 50.745 280.585C52.2703 280.585 53.3423 281.107 53.961 282.153C54.5903 283.187 54.905 284.627 54.905 286.473C54.905 288.339 54.5903 289.801 53.961 290.857C53.3423 291.902 52.2703 292.425 50.745 292.425C49.2197 292.425 48.1423 291.902 47.513 290.857C46.8943 289.801 46.585 288.339 46.585 286.473ZM53.113 286.473C53.113 285.609 53.0543 284.878 52.937 284.281C52.8303 283.683 52.6063 283.198 52.265 282.825C51.9237 282.441 51.417 282.249 50.745 282.249C50.073 282.249 49.5663 282.441 49.225 282.825C48.8837 283.198 48.6543 283.683 48.537 284.281C48.4303 284.878 48.377 285.609 48.377 286.473C48.377 287.369 48.4303 288.121 48.537 288.729C48.6437 289.337 48.8677 289.827 49.209 290.201C49.561 290.574 50.073 290.761 50.745 290.761C51.417 290.761 51.9237 290.574 52.265 290.201C52.617 289.827 52.8463 289.337 52.953 288.729C53.0597 288.121 53.113 287.369 53.113 286.473ZM63.203 292.457L58.899 287.481V292.457H57.075V281.337H58.899V286.409L63.219 281.337H65.507L60.675 286.905L65.587 292.457H63.203Z" fill="#364C61"/>
<path d="M38.3899 206.9C39.4139 206.015 40.2192 205.29 40.8059 204.724C41.4032 204.148 41.8992 203.551 42.2939 202.932C42.6885 202.314 42.8859 201.695 42.8859 201.076C42.8859 200.436 42.7312 199.935 42.4219 199.572C42.1232 199.21 41.6485 199.028 40.9979 199.028C40.3685 199.028 39.8779 199.231 39.5259 199.636C39.1845 200.031 39.0032 200.564 38.9819 201.236H37.2219C37.2539 200.02 37.6165 199.092 38.3099 198.452C39.0139 197.802 39.9045 197.476 40.9819 197.476C42.1445 197.476 43.0512 197.796 43.7019 198.436C44.3632 199.076 44.6939 199.93 44.6939 200.996C44.6939 201.764 44.4965 202.506 44.1019 203.22C43.7179 203.924 43.2539 204.559 42.7099 205.124C42.1765 205.679 41.4939 206.324 40.6619 207.06L39.9419 207.7H45.0139V209.22H37.2379V207.892L38.3899 206.9ZM54.1363 199.284H48.7763V202.468C49.0003 202.17 49.3309 201.919 49.7682 201.716C50.2163 201.514 50.6909 201.412 51.1923 201.412C52.0883 201.412 52.8136 201.604 53.3683 201.988C53.9336 202.372 54.3336 202.858 54.5683 203.444C54.8136 204.031 54.9363 204.65 54.9363 205.3C54.9363 206.09 54.7816 206.794 54.4722 207.412C54.1736 208.02 53.7203 208.5 53.1123 208.852C52.5149 209.204 51.7789 209.38 50.9043 209.38C49.7416 209.38 48.8083 209.092 48.1043 208.516C47.4003 207.94 46.9789 207.178 46.8403 206.228H48.6163C48.7336 206.73 48.9949 207.13 49.4003 207.428C49.8056 207.716 50.3123 207.86 50.9203 207.86C51.6776 207.86 52.2429 207.631 52.6163 207.172C53.0003 206.714 53.1923 206.106 53.1923 205.348C53.1923 204.58 53.0003 203.994 52.6163 203.588C52.2323 203.172 51.6669 202.964 50.9203 202.964C50.3976 202.964 49.9549 203.098 49.5923 203.364C49.2403 203.62 48.9843 203.972 48.8243 204.42H47.0963V197.684H54.1363V199.284ZM63.203 209.38L58.899 204.404V209.38H57.075V198.26H58.899V203.332L63.219 198.26H65.507L60.675 203.828L65.587 209.38H63.203Z" fill="#364C61"/>
<path d="M192.035 573.012H187.961L187.261 575H185.595L189.081 565.256H190.929L194.415 575H192.735L192.035 573.012ZM191.587 571.71L190.005 567.188L188.409 571.71H191.587Z" fill="#364C61"/>
<path d="M419.349 570.002C419.871 570.095 420.315 570.371 420.679 570.828C421.043 571.285 421.225 571.803 421.225 572.382C421.225 572.877 421.094 573.325 420.833 573.726C420.581 574.118 420.212 574.431 419.727 574.664C419.241 574.888 418.677 575 418.033 575H414.141V565.27H417.851C418.513 565.27 419.083 565.382 419.559 565.606C420.035 565.83 420.394 566.133 420.637 566.516C420.879 566.889 421.001 567.309 421.001 567.776C421.001 568.336 420.851 568.803 420.553 569.176C420.254 569.549 419.853 569.825 419.349 570.002ZM415.737 569.358H417.711C418.233 569.358 418.639 569.241 418.929 569.008C419.227 568.765 419.377 568.42 419.377 567.972C419.377 567.533 419.227 567.193 418.929 566.95C418.639 566.698 418.233 566.572 417.711 566.572H415.737V569.358ZM417.893 573.698C418.434 573.698 418.859 573.567 419.167 573.306C419.475 573.045 419.629 572.681 419.629 572.214C419.629 571.738 419.465 571.36 419.139 571.08C418.812 570.8 418.378 570.66 417.837 570.66H415.737V573.698H417.893Z" fill="#364C61"/>
<path d="M639.604 570.114C639.604 569.162 639.823 568.308 640.262 567.552C640.71 566.796 641.312 566.208 642.068 565.788C642.833 565.359 643.669 565.144 644.574 565.144C645.61 565.144 646.529 565.401 647.332 565.914C648.144 566.418 648.732 567.137 649.096 568.07H647.178C646.926 567.557 646.576 567.174 646.128 566.922C645.68 566.67 645.162 566.544 644.574 566.544C643.93 566.544 643.356 566.689 642.852 566.978C642.348 567.267 641.951 567.683 641.662 568.224C641.382 568.765 641.242 569.395 641.242 570.114C641.242 570.833 641.382 571.463 641.662 572.004C641.951 572.545 642.348 572.965 642.852 573.264C643.356 573.553 643.93 573.698 644.574 573.698C645.162 573.698 645.68 573.572 646.128 573.32C646.576 573.068 646.926 572.685 647.178 572.172H649.096C648.732 573.105 648.144 573.824 647.332 574.328C646.529 574.832 645.61 575.084 644.574 575.084C643.659 575.084 642.824 574.874 642.068 574.454C641.312 574.025 640.71 573.432 640.262 572.676C639.823 571.92 639.604 571.066 639.604 570.114Z" fill="#364C61"/>
<path d="M178.056 229.666C177.085 229.181 176.6 228.415 176.6 227.37C176.6 226.866 176.726 226.404 176.978 225.984C177.23 225.564 177.608 225.233 178.112 224.99C178.616 224.738 179.232 224.612 179.96 224.612C180.679 224.612 181.29 224.738 181.794 224.99C182.307 225.233 182.69 225.564 182.942 225.984C183.194 226.404 183.32 226.866 183.32 227.37C183.32 227.893 183.185 228.355 182.914 228.756C182.653 229.148 182.303 229.451 181.864 229.666C182.396 229.862 182.816 230.184 183.124 230.632C183.432 231.071 183.586 231.589 183.586 232.186C183.586 232.793 183.432 233.329 183.124 233.796C182.816 234.263 182.387 234.622 181.836 234.874C181.285 235.126 180.66 235.252 179.96 235.252C179.26 235.252 178.635 235.126 178.084 234.874C177.543 234.622 177.118 234.263 176.81 233.796C176.502 233.329 176.348 232.793 176.348 232.186C176.348 231.579 176.502 231.057 176.81 230.618C177.118 230.179 177.533 229.862 178.056 229.666ZM181.794 227.566C181.794 227.043 181.631 226.642 181.304 226.362C180.977 226.082 180.529 225.942 179.96 225.942C179.4 225.942 178.957 226.082 178.63 226.362C178.303 226.642 178.14 227.048 178.14 227.58C178.14 228.047 178.308 228.429 178.644 228.728C178.989 229.017 179.428 229.162 179.96 229.162C180.492 229.162 180.931 229.013 181.276 228.714C181.621 228.415 181.794 228.033 181.794 227.566ZM179.96 230.366C179.344 230.366 178.84 230.52 178.448 230.828C178.065 231.127 177.874 231.561 177.874 232.13C177.874 232.662 178.061 233.096 178.434 233.432C178.807 233.759 179.316 233.922 179.96 233.922C180.595 233.922 181.094 233.754 181.458 233.418C181.831 233.082 182.018 232.653 182.018 232.13C182.018 231.57 181.827 231.136 181.444 230.828C181.071 230.52 180.576 230.366 179.96 230.366ZM185.262 229.764C185.262 228.149 185.533 226.889 186.074 225.984C186.625 225.069 187.567 224.612 188.902 224.612C190.237 224.612 191.175 225.069 191.716 225.984C192.267 226.889 192.542 228.149 192.542 229.764C192.542 231.397 192.267 232.676 191.716 233.6C191.175 234.515 190.237 234.972 188.902 234.972C187.567 234.972 186.625 234.515 186.074 233.6C185.533 232.676 185.262 231.397 185.262 229.764ZM190.974 229.764C190.974 229.008 190.923 228.369 190.82 227.846C190.727 227.323 190.531 226.899 190.232 226.572C189.933 226.236 189.49 226.068 188.902 226.068C188.314 226.068 187.871 226.236 187.572 226.572C187.273 226.899 187.073 227.323 186.97 227.846C186.877 228.369 186.83 229.008 186.83 229.764C186.83 230.548 186.877 231.206 186.97 231.738C187.063 232.27 187.259 232.699 187.558 233.026C187.866 233.353 188.314 233.516 188.902 233.516C189.49 233.516 189.933 233.353 190.232 233.026C190.54 232.699 190.741 232.27 190.834 231.738C190.927 231.206 190.974 230.548 190.974 229.764ZM193.979 227.258C193.979 226.577 194.175 226.045 194.567 225.662C194.968 225.27 195.481 225.074 196.107 225.074C196.732 225.074 197.241 225.27 197.633 225.662C198.034 226.045 198.235 226.577 198.235 227.258C198.235 227.939 198.034 228.476 197.633 228.868C197.241 229.26 196.732 229.456 196.107 229.456C195.481 229.456 194.968 229.26 194.567 228.868C194.175 228.476 193.979 227.939 193.979 227.258ZM202.519 225.256L196.933 235H195.365L200.951 225.256H202.519ZM196.107 226.04C195.519 226.04 195.225 226.446 195.225 227.258C195.225 228.079 195.519 228.49 196.107 228.49C196.387 228.49 196.601 228.392 196.751 228.196C196.909 227.991 196.989 227.678 196.989 227.258C196.989 226.446 196.695 226.04 196.107 226.04ZM199.677 232.984C199.677 232.303 199.873 231.771 200.265 231.388C200.666 230.996 201.179 230.8 201.805 230.8C202.421 230.8 202.925 230.996 203.317 231.388C203.718 231.771 203.919 232.303 203.919 232.984C203.919 233.665 203.718 234.202 203.317 234.594C202.925 234.986 202.421 235.182 201.805 235.182C201.179 235.182 200.666 234.986 200.265 234.594C199.873 234.202 199.677 233.665 199.677 232.984ZM201.791 231.766C201.203 231.766 200.909 232.172 200.909 232.984C200.909 233.796 201.203 234.202 201.791 234.202C202.379 234.202 202.673 233.796 202.673 232.984C202.673 232.172 202.379 231.766 201.791 231.766Z" fill="#364C61"/>
<path d="M405.654 326.25V324.794H408.566V335H406.956V326.25H405.654ZM417.339 326.166H412.649V328.952C412.845 328.691 413.134 328.471 413.517 328.294C413.909 328.117 414.324 328.028 414.763 328.028C415.547 328.028 416.182 328.196 416.667 328.532C417.162 328.868 417.512 329.293 417.717 329.806C417.932 330.319 418.039 330.861 418.039 331.43C418.039 332.121 417.904 332.737 417.633 333.278C417.372 333.81 416.975 334.23 416.443 334.538C415.92 334.846 415.276 335 414.511 335C413.494 335 412.677 334.748 412.061 334.244C411.445 333.74 411.076 333.073 410.955 332.242H412.509C412.612 332.681 412.84 333.031 413.195 333.292C413.55 333.544 413.993 333.67 414.525 333.67C415.188 333.67 415.682 333.469 416.009 333.068C416.345 332.667 416.513 332.135 416.513 331.472C416.513 330.8 416.345 330.287 416.009 329.932C415.673 329.568 415.178 329.386 414.525 329.386C414.068 329.386 413.68 329.503 413.363 329.736C413.055 329.96 412.831 330.268 412.691 330.66H411.179V324.766H417.339V326.166ZM419.448 327.258C419.448 326.577 419.644 326.045 420.036 325.662C420.438 325.27 420.951 325.074 421.576 325.074C422.202 325.074 422.71 325.27 423.102 325.662C423.504 326.045 423.704 326.577 423.704 327.258C423.704 327.939 423.504 328.476 423.102 328.868C422.71 329.26 422.202 329.456 421.576 329.456C420.951 329.456 420.438 329.26 420.036 328.868C419.644 328.476 419.448 327.939 419.448 327.258ZM427.988 325.256L422.402 335H420.834L426.42 325.256H427.988ZM421.576 326.04C420.988 326.04 420.694 326.446 420.694 327.258C420.694 328.079 420.988 328.49 421.576 328.49C421.856 328.49 422.071 328.392 422.22 328.196C422.379 327.991 422.458 327.678 422.458 327.258C422.458 326.446 422.164 326.04 421.576 326.04ZM425.146 332.984C425.146 332.303 425.342 331.771 425.734 331.388C426.136 330.996 426.649 330.8 427.274 330.8C427.89 330.8 428.394 330.996 428.786 331.388C429.188 331.771 429.388 332.303 429.388 332.984C429.388 333.665 429.188 334.202 428.786 334.594C428.394 334.986 427.89 335.182 427.274 335.182C426.649 335.182 426.136 334.986 425.734 334.594C425.342 334.202 425.146 333.665 425.146 332.984ZM427.26 331.766C426.672 331.766 426.378 332.172 426.378 332.984C426.378 333.796 426.672 334.202 427.26 334.202C427.848 334.202 428.142 333.796 428.142 332.984C428.142 332.172 427.848 331.766 427.26 331.766Z" fill="#364C61"/>
<path d="M635.795 431.16C635.692 430.731 635.505 430.409 635.235 430.194C634.964 429.979 634.586 429.872 634.101 429.872C633.363 429.872 632.813 430.157 632.449 430.726C632.085 431.286 631.893 432.219 631.875 433.526C632.117 433.115 632.472 432.798 632.939 432.574C633.405 432.35 633.909 432.238 634.451 432.238C635.067 432.238 635.608 432.373 636.075 432.644C636.551 432.905 636.919 433.288 637.181 433.792C637.451 434.296 637.587 434.898 637.587 435.598C637.587 436.251 637.456 436.835 637.195 437.348C636.943 437.861 636.565 438.267 636.061 438.566C635.557 438.855 634.95 439 634.241 439C633.279 439 632.523 438.79 631.973 438.37C631.431 437.941 631.049 437.339 630.825 436.564C630.61 435.789 630.503 434.823 630.503 433.666C630.503 430.25 631.707 428.542 634.115 428.542C635.048 428.542 635.781 428.794 636.313 429.298C636.854 429.802 637.171 430.423 637.265 431.16H635.795ZM634.101 433.582C633.531 433.582 633.046 433.755 632.645 434.1C632.253 434.436 632.057 434.926 632.057 435.57C632.057 436.214 632.239 436.727 632.603 437.11C632.976 437.483 633.494 437.67 634.157 437.67C634.745 437.67 635.207 437.488 635.543 437.124C635.888 436.76 636.061 436.275 636.061 435.668C636.061 435.033 635.893 434.529 635.557 434.156C635.23 433.773 634.745 433.582 634.101 433.582ZM639.289 433.764C639.289 432.149 639.56 430.889 640.101 429.984C640.652 429.069 641.595 428.612 642.929 428.612C644.264 428.612 645.202 429.069 645.743 429.984C646.294 430.889 646.569 432.149 646.569 433.764C646.569 435.397 646.294 436.676 645.743 437.6C645.202 438.515 644.264 438.972 642.929 438.972C641.595 438.972 640.652 438.515 640.101 437.6C639.56 436.676 639.289 435.397 639.289 433.764ZM645.001 433.764C645.001 433.008 644.95 432.369 644.847 431.846C644.754 431.323 644.558 430.899 644.259 430.572C643.961 430.236 643.517 430.068 642.929 430.068C642.341 430.068 641.898 430.236 641.599 430.572C641.301 430.899 641.1 431.323 640.997 431.846C640.904 432.369 640.857 433.008 640.857 433.764C640.857 434.548 640.904 435.206 640.997 435.738C641.091 436.27 641.287 436.699 641.585 437.026C641.893 437.353 642.341 437.516 642.929 437.516C643.517 437.516 643.961 437.353 644.259 437.026C644.567 436.699 644.768 436.27 644.861 435.738C644.955 435.206 645.001 434.548 645.001 433.764ZM648.006 431.258C648.006 430.577 648.202 430.045 648.594 429.662C648.995 429.27 649.509 429.074 650.134 429.074C650.759 429.074 651.268 429.27 651.66 429.662C652.061 430.045 652.262 430.577 652.262 431.258C652.262 431.939 652.061 432.476 651.66 432.868C651.268 433.26 650.759 433.456 650.134 433.456C649.509 433.456 648.995 433.26 648.594 432.868C648.202 432.476 648.006 431.939 648.006 431.258ZM656.546 429.256L650.96 439H649.392L654.978 429.256H656.546ZM650.134 430.04C649.546 430.04 649.252 430.446 649.252 431.258C649.252 432.079 649.546 432.49 650.134 432.49C650.414 432.49 650.629 432.392 650.778 432.196C650.937 431.991 651.016 431.678 651.016 431.258C651.016 430.446 650.722 430.04 650.134 430.04ZM653.704 436.984C653.704 436.303 653.9 435.771 654.292 435.388C654.693 434.996 655.207 434.8 655.832 434.8C656.448 434.8 656.952 434.996 657.344 435.388C657.745 435.771 657.946 436.303 657.946 436.984C657.946 437.665 657.745 438.202 657.344 438.594C656.952 438.986 656.448 439.182 655.832 439.182C655.207 439.182 654.693 438.986 654.292 438.594C653.9 438.202 653.704 437.665 653.704 436.984ZM655.818 435.766C655.23 435.766 654.936 436.172 654.936 436.984C654.936 437.796 655.23 438.202 655.818 438.202C656.406 438.202 656.7 437.796 656.7 436.984C656.7 436.172 656.406 435.766 655.818 435.766Z" fill="#364C61"/>
<rect x="163" y="250" width="60" height="300" fill="#292666"/>
<rect x="385" y="350" width="60" height="200" fill="#292666"/>
<rect x="612" y="450" width="60" height="100" fill="#292666"/>
<rect x="709.5" y="29.5" width="39" height="39" rx="6.5" fill="#F8F8F8" stroke="#EDEDED"/>
<g clip-path="url(#clip0_0_6286)">
<path d="M726.707 46.71C726.507 46.9 726.257 47 725.997 47C725.737 47 725.487 46.9 725.287 46.71L720.5 41.92L720.15 42.26L718.71 43.71C718.51 43.9 718.26 44 718 44C717.87 44 717.74 43.97 717.62 43.92C717.24 43.77 717 43.4 717 43V38C717 37.45 717.45 37 718 37H723C723.4 37 723.77 37.24 723.92 37.62C724.08 37.99 723.99 38.42 723.71 38.71L722.26 40.15L721.92 40.5L726.708 45.29C727.098 45.68 727.098 46.32 726.708 46.71H726.707ZM731.293 46.71C731.493 46.9 731.743 47 732.003 47C732.263 47 732.513 46.9 732.713 46.71L737.503 41.92L737.853 42.26L739.293 43.71C739.49 43.9 739.74 44 740 44C740.13 44 740.26 43.97 740.38 43.92C740.76 43.77 741 43.4 741 43V38C741 37.45 740.55 37 740 37H735C734.6 37 734.23 37.24 734.08 37.62C733.92 37.99 734.01 38.42 734.29 38.71L735.74 40.15L736.08 40.5L731.292 45.29C730.902 45.68 730.902 46.32 731.292 46.71H731.293ZM726.707 51.29C726.507 51.1 726.257 51 725.997 51C725.737 51 725.487 51.1 725.287 51.29L720.5 56.08L720.15 55.74L718.71 54.29C718.51 54.1 718.26 54 718 54C717.87 54 717.74 54.03 717.62 54.08C717.24 54.23 717 54.6 717 55V60C717 60.55 717.45 61 718 61H723C723.4 61 723.77 60.76 723.92 60.38C724.08 60.01 723.99 59.58 723.71 59.29L722.26 57.85L721.92 57.5L726.708 52.71C727.098 52.32 727.098 51.68 726.708 51.29H726.707ZM731.293 51.29C731.493 51.1 731.743 51 732.003 51C732.263 51 732.513 51.1 732.713 51.29L737.503 56.08L737.853 55.74L739.293 54.29C739.49 54.1 739.74 54 740 54C740.13 54 740.26 54.03 740.38 54.08C740.76 54.23 741 54.6 741 55V60C741 60.55 740.55 61 740 61H735C734.6 61 734.23 60.76 734.08 60.38C733.92 60.01 734.01 59.58 734.29 59.29L735.74 57.85L736.08 57.5L731.292 52.71C730.902 52.32 730.902 51.68 731.292 51.29H731.293Z" fill="#364C61"/>
</g>
<defs>
<filter id="filter0_d_0_6286" x="0" y="0" width="780" height="616" filterUnits="userSpaceOnUse" color-interpolation-filters="sRGB">
<feFlood flood-opacity="0" result="BackgroundImageFix"/>
<feColorMatrix in="SourceAlpha" type="matrix" values="0 0 0 0 0 0 0 0 0 0 0 0 0 0 0 0 0 0 127 0" result="hardAlpha"/>
<feOffset/>
<feGaussianBlur stdDeviation="4"/>
<feComposite in2="hardAlpha" operator="out"/>
<feColorMatrix type="matrix" values="0 0 0 0 0.835294 0 0 0 0 0.85098 0 0 0 0 0.866667 0 0 0 0.4 0"/>
<feBlend mode="normal" in2="BackgroundImageFix" result="effect1_dropShadow_0_6286"/>
<feBlend mode="normal" in="SourceGraphic" in2="effect1_dropShadow_0_6286" result="shape"/>
</filter>
<clipPath id="clip0_0_6286">
<rect width="24" height="24" fill="white" transform="translate(717 37)"/>
</clipPath>
</defs>
</svg>
