<svg width="770" height="906" viewBox="0 0 770 906" fill="none" xmlns="http://www.w3.org/2000/svg">
<g filter="url(#filter0_d_0_4967)">
<rect x="8" y="8" width="754" height="890" rx="9" fill="white"/>
</g>
<path d="M29.6183 46.7559V32.7559H31.7583L40.5383 43.5359H39.4783V32.7559H42.0583V46.7559H39.9183L31.1383 35.9759H32.1983V46.7559H29.6183ZM50.5897 46.8959C49.403 46.8959 48.363 46.6625 47.4697 46.1959C46.5897 45.7159 45.903 45.0625 45.4097 44.2359C44.9297 43.4092 44.6897 42.4692 44.6897 41.4159C44.6897 40.3492 44.923 39.4092 45.3897 38.5959C45.8697 37.7692 46.523 37.1225 47.3497 36.6559C48.1897 36.1892 49.143 35.9559 50.2097 35.9559C51.2497 35.9559 52.1764 36.1825 52.9897 36.6359C53.803 37.0892 54.443 37.7292 54.9097 38.5559C55.3764 39.3825 55.6097 40.3559 55.6097 41.4759C55.6097 41.5825 55.603 41.7025 55.5897 41.8359C55.5897 41.9692 55.583 42.0959 55.5697 42.2159H46.6697V40.5559H54.2497L53.2697 41.0759C53.283 40.4625 53.1564 39.9225 52.8897 39.4559C52.623 38.9892 52.2564 38.6225 51.7897 38.3559C51.3364 38.0892 50.8097 37.9559 50.2097 37.9559C49.5964 37.9559 49.0564 38.0892 48.5897 38.3559C48.1364 38.6225 47.7764 38.9959 47.5097 39.4759C47.2564 39.9425 47.1297 40.4959 47.1297 41.1359V41.5359C47.1297 42.1759 47.2764 42.7425 47.5697 43.2359C47.863 43.7292 48.2764 44.1092 48.8097 44.3759C49.343 44.6425 49.9564 44.7759 50.6497 44.7759C51.2497 44.7759 51.7897 44.6825 52.2697 44.4959C52.7497 44.3092 53.1764 44.0159 53.5497 43.6159L54.8897 45.1559C54.4097 45.7159 53.803 46.1492 53.0697 46.4559C52.3497 46.7492 51.523 46.8959 50.5897 46.8959ZM62.0311 46.8959C60.8578 46.8959 59.9511 46.5959 59.3111 45.9959C58.6711 45.3825 58.3511 44.4825 58.3511 43.2959V33.7159H60.8511V43.2359C60.8511 43.7425 60.9778 44.1359 61.2311 44.4159C61.4978 44.6959 61.8644 44.8359 62.3311 44.8359C62.8911 44.8359 63.3578 44.6892 63.7311 44.3959L64.4311 46.1759C64.1378 46.4159 63.7778 46.5959 63.3511 46.7159C62.9244 46.8359 62.4844 46.8959 62.0311 46.8959ZM56.5911 38.1559V36.1559H63.7111V38.1559H56.5911ZM68.6523 46.7559L64.7323 36.0759H67.0923L70.4523 45.4959H69.3323L72.8523 36.0759H74.9523L78.3723 45.4959H77.2723L80.7323 36.0759H82.9523L79.0123 46.7559H76.6123L73.4923 38.4159H74.2323L71.0523 46.7559H68.6523ZM89.1783 46.8959C88.0849 46.8959 87.1116 46.6625 86.2583 46.1959C85.4049 45.7159 84.7316 45.0625 84.2383 44.2359C83.7449 43.4092 83.4983 42.4692 83.4983 41.4159C83.4983 40.3492 83.7449 39.4092 84.2383 38.5959C84.7316 37.7692 85.4049 37.1225 86.2583 36.6559C87.1116 36.1892 88.0849 35.9559 89.1783 35.9559C90.2849 35.9559 91.2649 36.1892 92.1183 36.6559C92.9849 37.1225 93.6583 37.7625 94.1383 38.5759C94.6316 39.3892 94.8783 40.3359 94.8783 41.4159C94.8783 42.4692 94.6316 43.4092 94.1383 44.2359C93.6583 45.0625 92.9849 45.7159 92.1183 46.1959C91.2649 46.6625 90.2849 46.8959 89.1783 46.8959ZM89.1783 44.7559C89.7916 44.7559 90.3383 44.6225 90.8183 44.3559C91.2983 44.0892 91.6716 43.7025 91.9383 43.1959C92.2183 42.6892 92.3583 42.0959 92.3583 41.4159C92.3583 40.7225 92.2183 40.1292 91.9383 39.6359C91.6716 39.1292 91.2983 38.7425 90.8183 38.4759C90.3383 38.2092 89.7983 38.0759 89.1983 38.0759C88.5849 38.0759 88.0383 38.2092 87.5583 38.4759C87.0916 38.7425 86.7183 39.1292 86.4383 39.6359C86.1583 40.1292 86.0183 40.7225 86.0183 41.4159C86.0183 42.0959 86.1583 42.6892 86.4383 43.1959C86.7183 43.7025 87.0916 44.0892 87.5583 44.3559C88.0383 44.6225 88.5783 44.7559 89.1783 44.7559ZM97.2689 46.7559V36.0759H99.6489V39.0159L99.3689 38.1559C99.6889 37.4359 100.189 36.8892 100.869 36.5159C101.562 36.1425 102.422 35.9559 103.449 35.9559V38.3359C103.342 38.3092 103.242 38.2959 103.149 38.2959C103.056 38.2825 102.962 38.2759 102.869 38.2759C101.922 38.2759 101.169 38.5559 100.609 39.1159C100.049 39.6625 99.7689 40.4825 99.7689 41.5759V46.7559H97.2689ZM107.61 44.3759L107.67 41.2359L113.25 36.0759H116.25L111.51 40.8359L110.19 41.9359L107.61 44.3759ZM105.57 46.7559V31.9159H108.07V46.7559H105.57ZM113.63 46.7559L109.73 41.9359L111.31 39.9359L116.67 46.7559H113.63ZM124.052 46.7559V32.7559H126.192L132.312 42.9759H131.192L137.212 32.7559H139.352L139.372 46.7559H136.912L136.892 36.6159H137.412L132.292 45.1559H131.132L125.932 36.6159H126.532V46.7559H124.052ZM149.493 46.7559V44.5959L149.353 44.1359V40.3559C149.353 39.6225 149.133 39.0559 148.693 38.6559C148.253 38.2425 147.587 38.0359 146.693 38.0359C146.093 38.0359 145.5 38.1292 144.913 38.3159C144.34 38.5025 143.853 38.7625 143.453 39.0959L142.473 37.2759C143.047 36.8359 143.727 36.5092 144.513 36.2959C145.313 36.0692 146.14 35.9559 146.993 35.9559C148.54 35.9559 149.733 36.3292 150.573 37.0759C151.427 37.8092 151.853 38.9492 151.853 40.4959V46.7559H149.493ZM146.133 46.8959C145.333 46.8959 144.633 46.7625 144.033 46.4959C143.433 46.2159 142.967 45.8359 142.633 45.3559C142.313 44.8625 142.153 44.3092 142.153 43.6959C142.153 43.0959 142.293 42.5559 142.573 42.0759C142.867 41.5959 143.34 41.2159 143.993 40.9359C144.647 40.6559 145.513 40.5159 146.593 40.5159H149.693V42.1759H146.773C145.92 42.1759 145.347 42.3159 145.053 42.5959C144.76 42.8625 144.613 43.1959 144.613 43.5959C144.613 44.0492 144.793 44.4092 145.153 44.6759C145.513 44.9425 146.013 45.0759 146.653 45.0759C147.267 45.0759 147.813 44.9359 148.293 44.6559C148.787 44.3759 149.14 43.9625 149.353 43.4159L149.773 44.9159C149.533 45.5425 149.1 46.0292 148.473 46.3759C147.86 46.7225 147.08 46.8959 146.133 46.8959ZM160.982 46.8959C160.115 46.8959 159.322 46.6959 158.602 46.2959C157.895 45.8959 157.329 45.2959 156.902 44.4959C156.489 43.6825 156.282 42.6559 156.282 41.4159C156.282 40.1625 156.482 39.1359 156.882 38.3359C157.295 37.5359 157.855 36.9425 158.562 36.5559C159.269 36.1559 160.075 35.9559 160.982 35.9559C162.035 35.9559 162.962 36.1825 163.762 36.6359C164.575 37.0892 165.215 37.7225 165.682 38.5359C166.162 39.3492 166.402 40.3092 166.402 41.4159C166.402 42.5225 166.162 43.4892 165.682 44.3159C165.215 45.1292 164.575 45.7625 163.762 46.2159C162.962 46.6692 162.035 46.8959 160.982 46.8959ZM155.062 50.6359V36.0759H157.442V38.5959L157.362 41.4359L157.562 44.2759V50.6359H155.062ZM160.702 44.7559C161.302 44.7559 161.835 44.6225 162.302 44.3559C162.782 44.0892 163.162 43.7025 163.442 43.1959C163.722 42.6892 163.862 42.0959 163.862 41.4159C163.862 40.7225 163.722 40.1292 163.442 39.6359C163.162 39.1292 162.782 38.7425 162.302 38.4759C161.835 38.2092 161.302 38.0759 160.702 38.0759C160.102 38.0759 159.562 38.2092 159.082 38.4759C158.602 38.7425 158.222 39.1292 157.942 39.6359C157.662 40.1292 157.522 40.7225 157.522 41.4159C157.522 42.0959 157.662 42.6892 157.942 43.1959C158.222 43.7025 158.602 44.0892 159.082 44.3559C159.562 44.6225 160.102 44.7559 160.702 44.7559Z" fill="#292666"/>
<g clip-path="url(#clip0_0_4967)">
<path d="M214.592 212.176C214.592 212.176 205.497 210.412 203.984 207.116C202.472 203.841 206.253 198.529 197.41 197.269C188.567 196.009 187.811 199.536 184.513 190.697C181.237 181.858 175.166 184.125 175.923 175.79C176.679 167.454 179.199 166.447 177.183 155.34C175.166 144.233 177.183 148.516 183.001 144.233C188.819 139.929 190.584 137.913 188.063 134.889C185.543 131.866 181.489 134.638 181.993 126.806C182.497 118.974 173.906 125.546 171.89 120.234C169.873 114.922 170.63 116.455 164.811 113.914C158.993 111.395 158.237 113.914 158.489 107.091C158.741 100.267 154.708 101.779 161.514 100.015C161.514 100.015 162.963 100.897 165.231 98.2513C167.5 95.6058 170.735 90.8607 173.381 90.8607C176.028 90.8607 177.162 89.349 179.451 90.8607C181.72 92.3724 181.531 92.7504 184.765 92.7504C188 92.7504 186.782 90.8607 186.047 87.6273C185.333 84.4149 191.193 85.5487 195.94 85.5487C200.687 85.5487 201.632 82.9032 204.468 83.0922C207.303 83.2811 216.587 84.7929 220.011 85.1708C223.434 85.5487 226.081 95.5848 227.593 96.3407C229.106 97.0966 238.012 97.8524 242.191 101.842C246.371 105.831 246.35 108.665 251.664 111.5C256.978 114.334 253.933 119.079 256.6 119.835C259.247 120.591 267.208 122.859 267.964 124.391C268.72 125.924 267.775 129.326 270.799 129.892C273.824 130.459 282.919 125.924 285.397 125.336C287.855 124.769 288.233 120.213 292.224 119.835C296.194 119.457 306.255 120.213 308.901 118.89C311.548 117.568 310.414 116.056 313.27 117.568C316.106 119.079 314.215 120.591 318.962 120.78C323.709 120.969 326.923 119.646 329.381 125.336C331.838 131.026 332.972 129.514 331.271 135.561C329.57 141.629 330.893 144.275 327.301 146.164C323.709 148.054 326.356 150.909 320.664 155.067C314.972 159.224 313.459 159.224 312.514 161.89C311.569 164.536 312.703 164.536 306.255 167.013C299.806 169.47 299.05 171.948 300.184 174.782C301.319 177.617 303.02 179.149 300.373 181.417C297.727 183.684 299.239 186.351 302.453 187.107C305.667 187.863 310.225 185.217 310.036 189.752C309.846 194.308 311.359 197.143 313.06 200.166C314.761 203.19 313.438 207.935 311.17 208.502C308.901 209.069 304.721 209.636 302.831 211.147C300.941 212.659 300.373 214.108 297.706 212.155C295.059 210.202 297.706 206.402 294.87 205.835C292.035 205.268 288.989 205.646 288.233 208.481C287.477 211.315 288.044 212.659 290.501 216.06C292.959 219.462 294.471 216.816 294.093 222.128C293.715 227.44 291.069 226.495 299.596 229.897C308.124 233.298 305.099 240.689 308.502 241.445C311.905 242.2 309.069 241.256 313.627 245.413C318.185 249.57 320.076 246.547 324.991 250.347C329.927 254.126 330.41 252.992 332.069 256.415C333.728 259.816 333.329 260.005 339.778 261.916C346.226 263.826 349.062 267.228 347.927 269.306C346.793 271.385 344.714 268.739 342.802 271.952C340.912 275.164 341.668 278.587 337.677 279.342C333.686 280.098 333.518 284.466 332.741 286.733C331.985 289.001 334.632 290.134 330.284 292.045C325.915 293.935 330.284 300.003 328.582 302.459C326.881 304.916 325.936 307.771 329.149 310.039C332.363 312.306 336.921 311.173 339.001 312.306C341.08 313.44 339.19 314.007 343.748 314.763C348.305 315.519 346.205 314.952 349.44 318.164C352.674 321.377 356.266 326.689 362.903 328.011C369.541 329.334 367.062 332.379 372.376 333.323C377.691 334.268 379.959 334.268 384.118 337.292C388.277 340.315 391.7 337.67 392.835 340.882C393.969 344.094 395.103 344.85 398.905 344.85C402.707 344.85 403.841 342.205 409.89 342.961C415.961 343.716 413.671 347.517 416.906 344.85C420.119 342.205 427.135 341.638 431.315 349.217C435.495 356.797 439.275 356.608 443.056 357.553C446.837 358.498 446.648 359.254 451.584 359.065C456.52 358.876 457.087 357.049 459.167 359.086C461.246 361.143 462.947 362.088 465.804 362.088C468.66 362.088 470.74 360.576 475.466 362.088C480.213 363.6 485.128 365.489 491.765 365.678C498.403 365.867 494.223 365.867 499.915 367.568C505.607 369.269 515.269 365.678 516.592 363.789C517.916 361.899 518.672 353.375 518.294 350.897C517.916 348.441 514.135 344.829 514.702 341.428C515.269 338.026 516.214 337.838 517.349 333.092C518.483 328.347 519.428 326.836 522.285 324.946C525.12 323.056 527.032 321.167 529.111 321.545C531.19 321.923 535.559 326.479 534.614 329.88C533.669 333.281 533.564 338.404 534.74 342.184C535.937 345.963 534.614 351.086 540.852 353.165C547.091 355.243 554.694 352.787 556.585 355.81C558.475 358.834 560.744 353.795 565.806 352.787C570.868 351.779 570.616 352.283 581.223 351.527C591.83 350.771 597.648 352.031 603.971 350.519C610.293 349.007 613.57 349.511 614.074 347.244C614.578 344.976 616.09 332.84 609.516 332.84C602.941 332.84 599.665 332.085 599.917 329.313C600.169 326.542 600.925 320.978 604.727 320.726C608.508 320.474 611.553 321.985 616.09 318.71C620.648 315.435 615.334 313.65 623.421 311.886C631.507 310.123 631.003 310.375 633.524 304.307C636.044 298.239 636.296 293.452 646.42 292.696C656.545 291.94 655.767 286.124 662.846 281.589C669.924 277.033 672.445 274.261 677.507 276.025C682.569 277.789 684.081 279.049 689.626 275.521C695.193 271.994 703.027 267.186 704.792 271.217C706.556 275.248 706.052 274.744 704.792 278.041C703.531 281.316 703.027 281.064 709.602 281.316C716.176 281.568 711.618 288.14 710.61 291.415C709.602 294.691 708.341 300.507 711.114 300.255C713.886 300.003 715.924 295.195 721.721 297.231C727.539 299.247 729.556 297.483 731.824 304.559C734.093 311.634 737.138 312.39 736.13 315.162C735.122 317.933 734.618 313.65 733.862 320.726C733.105 327.801 724.011 328.809 721.217 328.305C718.444 327.801 718.948 325.534 713.382 327.801C707.816 330.069 703.279 333.617 697.965 334.625C692.651 335.633 695.697 345.984 691.643 353.06C687.61 360.135 683.304 373.258 682.044 375.798C680.784 378.339 675.217 376.554 676.478 380.103C677.738 383.63 682.548 386.926 682.296 393.246C682.044 399.566 681.288 402.085 683.052 403.345C684.816 404.605 684.06 409.665 681.036 409.413C678.011 409.161 677.507 406.411 673.705 409.413C669.924 412.437 670.681 423.795 667.887 424.047C665.114 424.299 666.879 423.543 660.556 424.047C654.234 424.551 651.209 422.284 648.941 422.284C646.672 422.284 654.255 431.375 653.499 436.183C652.743 440.991 649.466 449.831 647.429 455.122C645.412 460.434 645.412 461.693 647.177 464.717C648.941 467.74 647.429 473.556 644.656 474.06C641.883 474.564 638.586 472.548 635.813 470.533C633.041 468.517 630.751 466.753 631.003 460.434C631.255 454.114 630.751 443.511 628.231 441.999C625.71 440.487 618.632 444.267 616.363 445.022C614.095 445.778 609.789 447.29 605.756 447.038C601.723 446.786 599.686 444.771 599.434 440.214C599.182 435.658 599.182 426.567 602.206 424.047C605.231 421.528 604.727 420.772 609.789 420.268C614.851 419.764 616.867 420.016 620.144 418.504C623.421 416.993 622.16 410.673 622.412 407.398C622.664 404.122 620.9 402.841 626.445 402.589C632.011 402.337 629.974 395.262 625.185 394.506C620.375 393.75 620.123 392.742 612.813 393.75C605.483 394.758 603.466 389.719 596.892 392.994C590.318 396.27 594.372 397.025 583.743 396.27C573.136 395.514 568.83 396.27 562.76 391.713C556.69 387.157 561.752 378.822 561.5 376.554C561.248 374.287 561.752 369.983 557.971 369.479C554.19 368.975 555.955 373.006 548.372 370.99C540.789 368.975 542.806 365.174 538.017 364.922C533.207 364.671 537.009 370.738 532.199 368.198C527.389 365.678 529.93 361.626 525.624 363.39C521.318 365.153 522.852 373.489 521.066 376.533C519.302 379.557 521.318 383.105 525.687 385.184C530.056 387.262 530.056 390.118 534.593 390.685C539.151 391.252 542.176 394.086 538.752 396.375C535.349 398.642 534.194 398.453 530.602 399.209C527.011 399.965 531.169 405.088 526.443 406.6C521.697 408.111 520.562 408.867 520.184 411.534C519.806 414.179 528.712 420.247 533.648 421.192C538.584 422.137 539.529 423.837 535.916 428.205C532.325 432.572 532.514 438.619 535.16 441.096C537.807 443.553 537.24 444.875 538.185 446.786C539.13 448.676 545.2 450.376 543.499 457.011C541.798 463.646 543.31 462.323 544.066 468.181C544.822 474.039 549.191 477.839 543.31 480.107C537.429 482.374 537.618 480.107 533.081 483.13C528.523 486.154 528.922 481.052 527.578 479.162C526.254 477.272 522.075 479.162 518.672 485.986C515.269 492.81 516.971 492.642 511.656 494.153C506.342 495.665 508.443 495.854 501.805 498.311C495.168 500.767 495.546 504.756 495.735 510.047C495.924 515.359 497.815 518.383 494.034 521.028C490.253 523.674 493.089 528.797 489.875 531.631C486.661 534.466 488.678 534.844 485.485 537.888C482.292 540.912 485.128 541.1 477.944 541.667C470.74 542.234 471.307 544.502 468.282 546.224C465.258 547.924 463.535 550.003 462.401 548.491C461.267 546.979 460.889 544.523 459.566 544.313C458.242 544.124 455.407 543.746 453.873 548.092C452.361 552.459 455.008 551.683 451.794 555.483C448.58 559.262 442.51 561.173 440.62 565.708C438.729 570.264 439.296 570.453 433.982 577.634C428.668 584.835 422.619 587.103 419.573 590.126C416.549 593.15 413.314 593.528 409.911 599.596C406.509 605.663 405.164 608.687 396.826 611.71C388.487 614.734 387.92 615.868 384.517 619.668C381.114 623.447 383.383 624.602 384.139 626.869C384.895 629.137 384.328 634.26 376.367 636.15C368.407 638.039 368.029 636.717 361.202 637.85C354.376 638.984 354.187 646.375 350.784 651.309C347.381 656.243 343.579 655.277 340.933 653.199C338.286 651.12 337.341 651.12 333.728 653.388C330.116 655.655 325.957 661.912 325.957 668.169C325.957 674.426 326.524 697.353 327.847 702.455C329.17 707.578 333.728 710.035 330.683 712.302C327.658 714.57 327.091 717.992 328.603 720.26C330.116 722.528 335.43 722.905 332.573 728.029C329.738 733.152 328.015 744.321 324.234 749.445C320.454 754.568 319.677 754.001 319.298 759.67C318.92 765.36 321 777.096 319.298 782.219C317.597 787.342 318.164 784.865 316.841 793.956C315.518 803.047 317.408 803.614 313.816 803.614C310.225 803.614 312.493 801.914 306.801 806.638C301.109 811.383 303.587 817.43 299.029 818.753C294.471 820.075 291.258 829.733 292.581 829.922C293.904 830.111 297.895 831.623 293.904 833.135C289.913 834.647 288.401 831.623 284.809 835.78C281.218 839.959 279.873 836.347 276.281 843.927C272.69 851.506 277.227 853.963 265.863 859.653C254.5 865.343 260.738 868.555 254.689 866.666C248.619 864.776 252.421 866.099 246.728 863.453C241.036 860.808 240.847 864.02 238.012 857.385C235.176 850.751 233.265 849.995 227.404 844.494C221.523 838.993 225.703 839.182 223.245 831.224C220.788 823.267 218.877 827.823 221.166 821.188C223.434 814.553 224.191 814.553 223.245 809.262C222.3 803.95 220.599 811.341 218.498 809.262C216.419 807.184 219.066 801.683 214.907 793.536C210.748 785.39 210.538 785.579 210.538 781.044C210.538 776.508 204.089 773.464 200.876 767.585C197.662 761.706 199.174 758.872 193.482 751.67C187.79 744.468 187.223 750.536 185.144 737.834C183.064 725.131 182.686 728.742 181.174 714.906C179.661 701.07 180.418 695.401 175.103 687.065C169.789 678.73 171.512 670.394 166.198 665.649C160.883 660.904 151.032 645.766 148.953 639.131C146.874 632.496 146.306 633.441 146.117 620.76C145.928 608.078 140.992 594.619 140.425 588.363C139.858 582.106 140.614 572.448 140.425 568.479C140.236 564.511 135.867 558.254 137.212 546.685C138.535 535.138 137.59 530.77 139.102 526.046C140.614 521.322 138.535 507.864 137.968 502.363C137.401 496.862 135.321 498.038 137.968 494.048C140.614 490.059 136.455 487.602 135.321 484.936C134.187 482.29 138.346 478.112 135.321 476.034C132.297 473.955 126.037 476.223 126.793 483.046C127.55 489.87 130.952 493.271 125.281 496.883C119.589 500.473 123.013 508.809 113.54 509.186C104.067 509.564 97.8074 510.887 90.2248 509.942C82.6422 508.997 84.3436 501.796 77.1391 497.828C69.9346 493.859 62.163 486.28 56.6808 483.046C51.1777 479.834 50.9886 474.144 48.9092 469.588C46.8298 465.032 47.3969 461.441 51.1777 463.52C54.9585 465.599 53.4462 469.399 57.0589 470.344C60.6506 471.289 64.2634 472.611 68.0442 470.155C71.825 467.698 76.3829 465.599 80.1637 464.087C83.9445 462.575 87.5572 458.208 84.5326 456.507C81.508 454.807 80.7518 455.562 70.6907 455.374C60.6507 455.185 62.352 459.153 55.1475 455.374C47.943 451.594 49.4553 447.605 46.2417 444.959C43.028 442.314 36.7687 439.27 38.6591 435.868C40.5495 432.467 45.1074 433.601 42.6289 431.9C40.1714 430.199 41.3056 432.467 37.3148 430.955C33.345 429.443 32.7569 426.021 34.8573 425.265C36.9367 424.509 39.9824 425.643 43.3851 423.942C46.7878 422.242 45.8426 422.242 50.2115 417.686C54.5804 413.129 54.9585 412.563 58.7393 414.662C62.52 416.741 64.0534 419.029 67.8341 419.029C71.6149 419.029 70.8588 422.809 74.6606 422.053C78.4414 421.297 78.0633 417.119 84.3226 416.552C90.5819 415.985 89.2586 412.584 93.9846 416.363C98.7316 420.142 103.836 416.174 103.647 413.717C103.458 411.261 105.537 400.637 100.244 397.424C94.9298 394.212 94.1736 392.679 95.875 388.711C97.5763 384.743 98.8996 383.021 93.9846 382.832C89.0486 382.643 81.487 384.344 83.3774 376.008C85.2678 367.673 93.7955 362.361 86.9691 360.093C80.1427 357.826 82.9993 359.526 78.6304 356.692C74.2615 353.858 67.267 346.656 71.2369 343.422C75.2067 340.21 74.6396 342.478 80.5208 335.087C86.402 327.696 89.2376 322.195 93.7955 322.783C98.3535 323.35 102.89 322.972 102.89 327.717C102.89 332.463 108.583 326.206 114.254 325.072C119.946 323.938 125.05 326.962 128.852 323.371C132.633 319.781 140.404 316.548 144.584 305.756C148.743 294.964 154.246 295.53 158.426 293.641C162.585 291.751 164.118 283.605 166.765 275.836C169.411 268.068 175.482 267.312 177.939 266.934C180.397 266.556 181.153 255.764 188.357 252.342C195.562 248.94 201.065 244.195 200.288 243.061C199.532 241.927 197.641 232.647 198.586 228.091C199.532 223.535 201.611 216.165 205.791 215.976C209.971 215.787 216.398 214.087 216.398 214.087L214.571 212.071L214.592 212.176Z" stroke="#676B78" stroke-width="0.95" stroke-miterlimit="10"/>
<path d="M214.591 212.176C214.591 212.176 219.842 209.845 224.568 208.334C229.315 206.822 228.16 201.51 229.504 196.786C230.828 192.041 235.008 195.085 238.788 192.23C242.569 189.395 245.993 189.017 250.152 189.584C254.311 190.151 251.853 196.03 257.167 197.164C262.481 198.298 263.426 196.03 266.64 197.542C269.854 199.053 269.854 199.242 273.278 198.298C276.68 197.353 277.247 198.298 280.293 203.61C283.318 208.922 288.002 209.803 288.002 209.803" stroke="#676B78" stroke-width="0.71" stroke-linecap="round" stroke-linejoin="round"/>
<path d="M301.423 230.8C301.423 230.8 299.974 233.319 299.974 236.364C299.974 239.408 303.608 240.92 301.423 242.621C299.239 244.321 298.084 243.565 294.87 242.621C291.656 241.676 289.367 240.731 285.586 241.487C281.805 242.243 280.272 240.101 276.869 243.628C273.467 247.156 269.287 247.912 269.098 253.602C268.909 259.291 271.555 261.559 267.585 261.937C263.615 262.315 263.426 257.57 258.868 255.869C254.311 254.168 255.655 251.502 249.963 249.423C244.27 247.345 249.017 246.4 245.594 242.033C242.191 237.666 235.743 241.277 233.663 235.209C231.584 229.141 235.176 227.062 230.45 223.094C225.724 219.126 224.568 208.313 224.568 208.313" stroke="#676B78" stroke-width="0.71" stroke-linecap="round" stroke-linejoin="round"/>
<path d="M177.939 267.039C177.939 267.039 179.451 272.917 184.009 273.295C188.567 273.673 200.498 272.351 203.9 273.295C207.303 274.24 205.602 278.985 208.458 280.497C211.294 282.009 212.827 280.875 216.23 280.497C219.633 280.119 220.788 285.053 222.867 281.253C224.947 277.453 224.38 277.264 229.883 277.642C235.386 278.02 232.718 274.051 235.008 271.385C237.276 268.739 238.032 269.684 241.456 270.629C244.859 271.574 245.237 273.274 247.337 267.039C249.417 260.782 252.084 264.015 252.273 259.27C252.462 254.525 251.328 249.969 251.328 249.969" stroke="#676B78" stroke-width="0.71" stroke-linecap="round" stroke-linejoin="round"/>
<path d="M268.363 261.811C268.363 261.811 270.232 265.527 272.144 271.028C274.055 276.529 275.735 275.773 280.482 278.041C285.229 280.308 288.632 281.316 292.98 282.702C297.349 284.087 299.428 284.465 309.468 284.465C319.508 284.465 322.743 285.977 326.524 284.465C330.305 282.954 333.938 282.702 333.938 282.702" stroke="#676B78" stroke-width="0.71" stroke-linecap="round" stroke-linejoin="round"/>
<path d="M194.427 273.463C194.427 273.463 194.427 290.701 196.507 290.701C198.586 290.701 198.964 288.245 202.388 289.189C205.812 290.134 209.97 288.245 210.916 291.835C211.861 295.425 209.613 295.803 215.096 298.281C220.578 300.737 219.065 300.926 217.931 306.238C216.797 311.55 220.956 311.361 224.569 313.251C228.16 315.141 225.892 322.72 227.782 325.954C229.673 329.166 231.941 325.765 236.877 324.631C241.813 323.497 240.658 319.697 241.813 323.497C242.947 327.276 241.246 333.344 244.838 333.344C248.429 333.344 250.341 332.021 250.152 335.801C249.963 339.58 256.033 341.68 258.869 335.045C261.704 328.41 262.145 336.368 263.364 327.276C264.561 318.185 263.427 317.24 260.402 314.007C257.377 310.794 251.916 318.563 252.273 310.983C252.63 303.404 253.008 297.336 254.71 293.368C256.411 289.399 247.883 286.418 254.143 282.702C260.402 278.985 258.89 274.051 261.158 271.217C263.427 268.382 270.253 266.01 270.253 266.01" stroke="#676B78" stroke-width="0.71" stroke-linecap="round" stroke-linejoin="round"/>
<path d="M103.709 411.975C103.709 411.975 107.7 409.728 111.733 411.975C115.766 414.221 115.514 414.221 122.088 414.221C128.663 414.221 129.797 413.465 133.767 417.434C137.737 421.402 137.169 420.646 141.916 420.646C146.663 420.646 149.121 421.78 151.2 419.134C153.28 416.489 155.17 416.111 154.225 421.969C153.28 427.848 152.713 429.359 156.304 431.816C159.896 434.272 159.518 433.328 161.619 438.829C163.719 444.329 166.744 444.518 170.713 447.164C174.683 449.809 175.649 446.786 178.674 453.421C181.699 460.056 186.635 460.811 187.58 458.733C188.525 456.654 187.769 456.465 190.605 452.098C193.44 447.731 192.873 446.219 194.385 443.007C195.898 439.794 198.166 439.983 196.843 432.593C195.52 425.202 193.818 427.47 195.331 420.289C196.843 413.087 193.671 415.922 197.242 412.331C200.813 408.741 201.191 403.807 204.047 404.752C206.904 405.697 208.794 405.697 208.017 409.686C207.261 413.654 206.652 415.754 208.185 415.943C209.718 416.132 209.718 414.809 213.898 414.242C218.057 413.675 219.969 412.73 220.536 415.943C221.103 419.155 222.048 420.121 220.536 421.822C219.023 423.522 218.645 421.255 218.834 426.756C219.023 432.257 214.465 433.579 214.276 435.091C214.087 436.603 211.819 437.359 214.655 438.493C217.49 439.626 219.696 433.16 221.355 432.215C222.993 431.291 225.472 431.858 227.551 428.624C229.631 425.412 230.576 423.942 232.613 425.601C234.63 427.239 233.243 428.75 237.045 429.002C240.826 429.254 239.566 429.002 242.611 430.766C245.636 432.53 248.43 433.286 247.673 427.995C246.917 422.683 246.035 421.171 247.799 420.793C249.564 420.415 249.312 422.934 250.95 420.667C252.588 418.399 251.202 417.392 250.194 416.237C249.186 415.103 243.872 412.331 247.673 408.783C251.454 405.256 257.524 407.019 258.533 405.508C259.541 403.996 259.415 397.928 255.886 398.306C252.357 398.684 251.58 399.797 248.682 398.306C245.783 396.815 243.62 400.091 241.477 394.527C239.335 388.963 236.541 387.325 242.485 382.916C248.43 378.486 251.832 377.73 256.516 373.321C261.2 368.912 261.83 368.261 267.249 367.883C272.69 367.505 280.272 363.264 280.083 360.429C279.894 357.595 274.958 359.106 271.933 358.728C268.909 358.351 266.808 358.162 267.375 354.172C267.943 350.204 269.266 346.215 265.296 344.892C261.326 343.569 260.171 345.27 260.549 341.869C260.927 338.467 259.562 333.596 259.562 333.596" stroke="#676B78" stroke-width="0.71" stroke-linecap="round" stroke-linejoin="round"/>
<path d="M138.073 533.962C138.073 533.962 141.938 531.19 145.214 529.658C148.491 528.146 149.373 530.288 153.175 527.642C156.956 524.997 155.821 523.338 157.985 520.188C160.127 517.039 160.253 518.929 162.018 520.188C163.782 521.448 167.458 520.44 168.844 517.921C170.23 515.401 170.356 509.837 168.844 509.081C167.332 508.326 166.702 503.644 169.222 502.006C171.743 500.368 173.78 502.762 172.751 498.604C171.743 494.426 167.185 493.544 168.067 490.143C168.949 486.742 171.722 486.868 174.263 485.839C176.784 484.831 178.821 481.535 179.451 476.748C180.081 471.939 179.451 472.968 182.476 470.428C185.501 467.908 184.849 459.657 184.849 459.657" stroke="#676B78" stroke-width="0.71" stroke-linecap="round" stroke-linejoin="round"/>
<path d="M414.49 345.249C414.49 345.249 416.717 353.605 419.762 355.39C422.787 357.154 426.841 357.154 425.832 360.954C424.824 364.733 421.485 358.938 420.245 365.51C419.006 372.082 415.918 374.35 420.245 377.625C424.572 380.9 430.643 380.648 432.155 383.441C433.667 386.233 431.399 387.745 428.626 387.997C425.853 388.249 425.601 386.989 421.548 390.013C417.515 393.036 415.225 397.088 412.957 398.852C410.688 400.616 407.391 398.096 405.374 402.379C403.358 406.684 408.399 411.975 409.932 413.738C411.445 415.502 409.932 418.798 406.908 419.554C403.883 420.31 409.008 430.661 404.912 433.202C400.837 435.721 404.618 438.262 398.821 437.506C393.003 436.75 386.701 439.521 387.205 435.742C387.71 431.963 389.222 430.682 390.23 428.163C391.238 425.643 391.238 420.331 388.214 419.827C385.189 419.323 385.189 423.606 378.867 416.048C372.544 408.489 372.04 405.445 369.016 405.445C365.991 405.445 364.983 406.453 358.661 407.208C352.338 407.964 353.346 410.484 346.898 407.964C340.45 405.445 342.487 403.156 336.921 404.185C331.355 405.214 331.103 405.697 328.582 401.665C326.062 397.634 324.549 405.193 316.211 404.689C307.872 404.185 311.401 399.125 303.839 400.133C296.278 401.141 301.697 396.857 296.572 395.325C291.447 393.792 287.918 400.133 288.926 405.676C289.934 411.24 290.942 414.011 293.736 418.315C296.509 422.62 301.193 429.422 296.593 430.178C291.993 430.934 291.972 422.347 286.174 422.347C280.377 422.347 281.007 421.087 280.167 414.515C279.348 407.943 275.189 400.868 280.167 398.096C285.145 395.325 284.641 393.288 290.711 390.265C296.782 387.241 301.823 379.662 301.319 377.121C300.815 374.581 303.482 370.045 296.593 366.518C289.703 362.991 290.648 358.54 285.145 358.938L279.663 359.337" stroke="#676B78" stroke-width="0.71" stroke-linecap="round" stroke-linejoin="round"/>
<path d="M516.655 347.433C516.655 347.433 520.835 346.74 525.141 345.249C529.447 343.758 529.951 343.506 531.715 343.506H535.055" stroke="#676B78" stroke-width="0.71" stroke-linecap="round" stroke-linejoin="round"/>
<path d="M514.555 365.321C514.555 365.321 521.087 362.886 520.583 365.321C520.079 367.757 518.126 371.809 514.555 374.581C510.984 377.352 512.055 385.435 514.555 388.48C517.054 391.503 511.74 394.548 510.228 395.556C508.716 396.563 517.58 405.655 515.416 409.455C513.253 413.234 515.017 412.73 512.496 419.05C509.976 425.37 504.41 419.302 503.15 427.134C501.889 434.965 503.654 434.503 494.559 437.779C485.464 441.033 485.464 437.506 480.402 441.033C475.34 444.56 474.332 440.277 470.299 442.797C466.266 445.316 466.266 447.857 470.299 452.14C474.332 456.444 478.133 460.391 482.943 459.804C487.753 459.216 485.464 469.819 488.509 473.367C491.534 476.894 487.753 480.947 484.204 479.687C480.675 478.427 479.142 470.596 476.369 470.596C473.596 470.596 472.588 472.59 471.559 479.918C470.53 487.245 467.526 489.282 464.228 485.482C460.952 481.702 457.402 482.71 451.857 482.206C446.291 481.702 452.613 476.139 448.58 473.871C444.547 471.603 443.266 474.585 436.461 475.236C429.634 475.887 425.097 477.881 424.341 475.236C423.585 472.59 423.333 471.582 426.358 467.551C429.382 463.52 431.168 466.459 427.87 459.804C424.593 453.148 421.295 452.896 421.043 447.353C420.791 441.789 419.993 445.337 412.453 439.269L404.912 433.202" stroke="#676B78" stroke-width="0.71" stroke-linecap="round" stroke-linejoin="round"/>
<path d="M508.968 494.195C508.968 494.195 511.488 489.975 504.662 487.33C497.835 484.705 491.765 483.445 491.009 481.913C490.253 480.401 488.341 478.763 488.341 478.763" stroke="#676B78" stroke-width="0.71" stroke-linecap="round" stroke-linejoin="round"/>
<path d="M174.284 485.839C174.284 485.839 178.443 488.694 183.253 487.33C188.063 485.965 185.522 489.492 189.827 492.789C194.133 496.064 197.41 497.093 202.199 497.849C207.009 498.604 208.269 498.101 212.05 501.124C215.831 504.147 220.641 499.612 223.665 504.147C226.69 508.704 228.727 510.719 233.769 509.711C238.831 508.704 237.801 507.444 243.62 502.888C249.438 498.332 254.227 496.043 257.777 496.82C261.305 497.597 254.752 506.436 264.351 506.184C273.95 505.932 274.454 495.707 281.532 497.912C288.611 500.116 288.863 505.68 295.185 502.909C301.508 500.137 303.776 496.715 309.09 497.912C314.404 499.108 319.193 503.916 326.02 503.161C332.846 502.405 338.391 503.161 338.916 505.428C339.442 507.696 335.136 507.192 336.648 512.756C338.16 518.32 342.046 521.595 338.958 528.671C335.892 535.747 335.64 539.526 337.908 543.326C340.177 547.105 345.743 551.913 341.689 553.929C337.656 555.945 334.611 557.96 332.09 564.784C329.569 571.608 337.908 575.387 332.594 577.928C327.28 580.447 337.908 580.951 338.916 583.744C339.925 586.515 344.966 587.775 346.877 594.599C348.767 601.422 354.334 600.918 357.379 600.666C360.404 600.414 358.387 601.17 362.693 593.339C366.999 585.507 370.78 580.699 372.796 577.424C374.813 574.148 382.143 578.18 381.135 567.829C380.127 557.477 377.858 567.073 378.363 554.433C378.867 541.793 372.292 538.77 377.102 538.266C381.912 537.762 386.449 546.601 390.251 546.601C394.053 546.601 392.772 541.289 390.251 539.526C387.731 537.762 385.924 530.183 385.042 525.878C384.181 521.574 383.425 521.322 387.205 517.543C390.986 513.764 386.449 510.719 393.78 508.956C401.11 507.192 404.135 514.519 406.676 503.895C409.218 493.271 406.424 492.977 413.755 487.33C421.085 481.661 424.362 475.215 424.362 475.215" stroke="#676B78" stroke-width="0.71" stroke-linecap="round" stroke-linejoin="round"/>
<path d="M156.893 654.08C156.893 654.08 163.026 650.154 165.819 652.191C168.592 654.206 172.898 654.71 175.923 649.923C178.947 645.115 182.245 642.889 179.199 638.564C176.175 634.239 175.04 634.533 180.396 627.961C185.753 621.389 182.98 619.122 189.806 619.878C196.633 620.634 197.137 621.389 203.459 614.566C209.782 607.742 205.476 605.474 213.814 607.238C222.153 609.002 227.971 608.75 232.004 602.43C236.037 596.11 234.525 593.339 241.351 591.827C248.178 590.315 248.682 591.575 255.76 584.751C262.839 577.928 262.839 583.995 264.855 571.86C266.871 559.745 267.628 559.22 272.438 557.96C277.248 556.7 275.966 559.472 280.272 553.404C284.578 547.336 286.09 545.321 290.627 546.328C295.185 547.336 295.689 554.664 302.999 554.916C310.329 555.168 313.858 546.076 318.416 553.404C322.974 560.732 318.164 569.823 321.189 574.883C324.213 579.943 331.103 579.334 331.103 579.334" stroke="#676B78" stroke-width="0.71" stroke-linecap="round" stroke-linejoin="round"/>
<path d="M170.587 674.909C170.587 674.909 172.898 677.428 174.158 672.368C175.418 667.308 172.373 653.136 172.373 653.136" stroke="#676B78" stroke-width="0.71" stroke-linecap="round" stroke-linejoin="round"/>
<path d="M184.471 734.159C184.471 734.159 198.901 738.316 200.435 743.607C201.947 748.919 203.963 749.171 211.798 752.195C219.633 755.218 220.641 748.919 221.145 757.507C221.649 766.094 227.971 770.398 229.736 772.666C231.5 774.934 232.76 785.558 237.318 787.573C241.876 789.589 236.562 803.236 241.876 806.512C247.19 809.787 250.215 805 248.703 816.863C247.19 828.725 252.483 827.718 247.694 835.045C242.884 842.373 245.678 839.077 244.67 845.396C243.662 851.716 246.686 853.732 244.67 855.747C242.653 857.763 238.032 857.511 238.032 857.511" stroke="#676B78" stroke-width="0.71" stroke-linecap="round" stroke-linejoin="round"/>
<path d="M357.358 600.645C357.358 600.645 362.673 600.393 367.209 597.874C371.767 595.354 373.532 596.362 381.114 589.035C388.697 581.707 385.924 577.424 391.722 578.935C397.54 580.447 400.06 581.959 402.077 576.668C404.093 571.356 400.312 569.844 407.139 568.08C413.965 566.317 415.73 562.013 418.502 566.317C421.275 570.621 429.361 573.896 432.407 571.881C435.453 569.865 440.62 565.813 440.62 565.813" stroke="#676B78" stroke-width="0.71" stroke-linecap="round" stroke-linejoin="round"/>
<path d="M221.838 761.391C221.838 761.391 230.765 761.055 232.025 763.827C233.285 766.598 239.103 770.398 241.12 768.635C243.136 766.871 243.472 763.071 249.753 762.819C256.033 762.567 259.058 761.811 261.599 755.491C264.12 749.171 256.537 749.423 259.835 743.628C263.111 737.812 258.575 735.545 265.149 735.545C271.723 735.545 273.488 730.023 275.504 734.18C277.52 738.337 282.078 741.865 283.591 738.589C285.103 735.314 286.615 731.766 291.677 731.01C296.739 730.254 299.26 734.285 302.537 733.025C305.813 731.766 311.884 727.209 312.136 725.194C312.388 723.178 314.845 723.934 321.735 722.17C328.624 720.407 327.826 717.866 327.826 717.866" stroke="#676B78" stroke-width="0.71" stroke-linecap="round" stroke-linejoin="round"/>
<path d="M255.781 584.73C255.781 584.73 261.599 593.822 259.814 597.37C258.049 600.897 253.828 603.438 257.965 607.217C262.103 610.997 256.285 616.057 255.781 622.376C255.277 628.696 261.683 631.405 257.965 634.218C254.269 637.032 256.033 641.567 259.058 643.855C262.082 646.144 262.04 650.427 255.739 651.939C249.459 653.451 247.925 652.695 246.161 656.495C244.397 660.274 249.438 666.09 248.177 669.891C246.917 673.67 241.855 671.927 241.351 675.581C240.847 679.234 236.793 692.125 241.351 692.377C245.909 692.629 255.508 688.073 255.256 694.645C255.004 701.217 249.186 697.668 248.682 702.476C248.177 707.285 253.996 708.04 259.289 707.788C264.603 707.537 267.88 705.521 270.652 709.804C273.425 714.108 268.867 713.079 274.811 717.888C280.755 722.696 281.763 721.94 279.999 726.727C278.235 731.535 275.441 734.201 275.441 734.201" stroke="#676B78" stroke-width="0.71" stroke-linecap="round" stroke-linejoin="round"/>
<path d="M557.992 369.52C557.992 369.52 559.063 364.397 560.386 363.453C561.709 362.508 562.424 354.214 562.424 354.214" stroke="#676B78" stroke-width="0.71" stroke-linecap="round" stroke-linejoin="round"/>
<path d="M561.269 378.276C561.269 378.276 566.835 375.588 573.661 375.777C580.488 375.966 585.592 377.121 588.826 377.016C592.04 376.911 592.607 380.754 597.354 378.276C602.101 375.777 604.937 368.954 610.818 369.521C616.699 370.088 620.291 368.009 619.535 373.3C618.778 378.612 619.913 379.935 623.904 380.313C627.873 380.691 631.297 385.247 630.919 387.892C630.541 390.538 626.928 395.094 626.928 395.094" stroke="#676B78" stroke-width="0.71" stroke-linecap="round" stroke-linejoin="round"/>
<path d="M613.381 348.399C613.381 348.399 610.797 349.259 619.703 345.459C628.609 341.659 638.082 343.38 645.097 341.659C652.113 339.958 654.003 343.926 654.381 335.591C654.759 327.255 656.649 328.011 661.018 325.933C665.387 323.854 663.476 321.775 667.656 321.188C671.836 320.6 673.915 325.555 679.586 319.487C685.278 313.419 690.761 312.096 695.13 311.151C699.498 310.207 701.578 306.784 700.633 312.096C699.687 317.408 694.94 316.652 698.553 320.621C702.145 324.589 703.867 326.122 700.066 329.901C696.285 333.68 694.814 332.295 695.445 336.683" stroke="#676B78" stroke-width="0.71" stroke-linecap="round" stroke-linejoin="round"/>
<path d="M677.402 377.877C677.402 377.877 678.095 373.321 675.616 373.132C673.159 372.943 673.348 378.633 669.546 379.578C665.765 380.523 665.177 378.213 659.695 382.307C654.192 386.402 658.561 386.402 650.789 388.48C643.018 390.559 645.475 396.438 643.963 400.973C642.45 405.529 640.938 408.741 641.694 412.71C642.45 416.678 648.962 422.305 648.962 422.305" stroke="#676B78" stroke-width="0.71" stroke-linecap="round" stroke-linejoin="round"/>
<path d="M620.144 418.525C620.144 418.525 625.017 422.368 624.449 425.769C623.882 429.191 623.714 442.167 623.714 442.167" stroke="#676B78" stroke-width="0.71" stroke-linecap="round" stroke-linejoin="round"/>
<path d="M640.56 412.919C640.56 412.919 640.56 411.597 635.624 411.975C630.688 412.353 635.309 418.798 630.919 420.121C626.529 421.444 623.546 422.326 623.546 422.326" stroke="#676B78" stroke-width="0.71" stroke-linecap="round" stroke-linejoin="round"/>
<path d="M650.789 388.48C650.789 388.48 653.058 384.113 650.033 378.822C647.008 373.51 652.491 370.108 654.402 370.486C656.292 370.864 657.196 371.179 659.506 370.465C661.795 369.73 662.741 361.017 666.164 357.427C669.567 353.836 669.189 355.726 673.369 349.28C677.549 342.834 679.061 341.701 685.11 340.189C691.181 338.677 696.495 335.381 696.495 335.381" stroke="#676B78" stroke-width="0.71" stroke-linecap="round" stroke-linejoin="round"/>
<path d="M243.872 165.908H245.564V167.601H243.872V165.908Z" fill="#EF3A3A"/>
<path d="M237.963 147.279L235.395 147.281L235.32 149.397H236.681C236.915 149.397 237.104 149.587 237.104 149.821C237.104 150.054 236.915 150.244 236.681 150.244H235.291L235.231 151.937H236.681C236.915 151.937 237.104 152.127 237.104 152.361C237.104 152.594 236.915 152.784 236.681 152.784H235.201L235.082 156.165L238.208 154.078L237.963 147.279Z" fill="#EF3A3A"/>
<path d="M239.642 165.908H241.334V167.601H239.642V165.908Z" fill="#EF3A3A"/>
<path d="M244.308 147.279L241.74 147.281L241.665 149.397H243.026C243.259 149.397 243.449 149.587 243.449 149.821C243.449 150.054 243.259 150.244 243.026 150.244H241.635L241.575 151.937H243.026C243.259 151.937 243.449 152.127 243.449 152.361C243.449 152.594 243.259 152.784 243.026 152.784H241.546L241.426 156.165L244.553 154.078L244.308 147.279Z" fill="#EF3A3A"/>
<path d="M254.023 160.827H252.331C252.219 160.827 252.111 160.783 252.032 160.703C251.953 160.624 251.908 160.516 251.908 160.404V154.422L246.41 158.091V159.557C246.41 159.791 246.22 159.981 245.987 159.981C245.753 159.981 245.564 159.791 245.564 159.557V154.422L240.065 158.09V159.557C240.065 159.791 239.876 159.981 239.642 159.981C239.409 159.981 239.219 159.791 239.219 159.557V154.421L233.721 158.09V169.294H254.023L254.023 160.827ZM237.95 167.601C237.95 167.826 237.861 168.041 237.702 168.199C237.543 168.358 237.328 168.447 237.104 168.448H235.412C235.188 168.447 234.973 168.358 234.814 168.199C234.656 168.041 234.567 167.826 234.566 167.601V165.908C234.567 165.683 234.656 165.468 234.814 165.309C234.973 165.151 235.188 165.061 235.412 165.061H237.104C237.328 165.061 237.543 165.15 237.702 165.309C237.861 165.468 237.95 165.683 237.95 165.908V167.601ZM242.18 167.601H242.18C242.179 167.826 242.09 168.041 241.932 168.199C241.773 168.358 241.558 168.447 241.334 168.448H239.642C239.418 168.447 239.203 168.358 239.044 168.199C238.885 168.041 238.796 167.826 238.796 167.601V165.908C238.796 165.683 238.885 165.468 239.044 165.309C239.203 165.151 239.418 165.061 239.642 165.061H241.334C241.558 165.061 241.773 165.15 241.932 165.309C242.09 165.468 242.179 165.683 242.18 165.908L242.18 167.601ZM246.409 167.601H246.409C246.409 167.826 246.32 168.041 246.161 168.199C246.003 168.358 245.788 168.447 245.563 168.448H243.872C243.647 168.447 243.432 168.358 243.274 168.199C243.115 168.041 243.026 167.826 243.026 167.601V165.908C243.026 165.683 243.115 165.468 243.274 165.309C243.432 165.15 243.647 165.061 243.872 165.061H245.563C245.788 165.061 246.003 165.15 246.161 165.309C246.32 165.468 246.409 165.683 246.409 165.908L246.409 167.601ZM246.409 163.368V163.791H246.409C246.409 164.025 246.22 164.214 245.986 164.214C245.753 164.214 245.563 164.025 245.563 163.791V163.368H237.95C237.716 163.368 237.527 163.178 237.527 162.944C237.527 162.71 237.716 162.521 237.95 162.521H238.796V161.674H235.835C235.602 161.674 235.412 161.485 235.412 161.251C235.412 161.017 235.602 160.827 235.835 160.827H236.258V160.404C236.258 160.17 236.448 159.981 236.681 159.981C236.915 159.981 237.104 160.17 237.104 160.404V160.827H244.294C244.528 160.827 244.717 161.017 244.717 161.251C244.717 161.485 244.528 161.674 244.294 161.674H239.642V162.521H246.409C246.643 162.521 246.832 162.71 246.832 162.944C246.832 163.178 246.643 163.368 246.409 163.368L246.409 163.368ZM250.639 167.601C250.639 167.826 250.55 168.041 250.391 168.199C250.232 168.358 250.017 168.447 249.793 168.448H248.101C247.877 168.447 247.662 168.358 247.503 168.199C247.345 168.041 247.256 167.826 247.255 167.601V165.908C247.256 165.683 247.345 165.468 247.503 165.309C247.662 165.151 247.877 165.061 248.101 165.061H249.793C250.017 165.061 250.232 165.15 250.391 165.309C250.55 165.468 250.639 165.683 250.639 165.908V167.601Z" fill="#EF3A3A"/>
<path d="M235.412 165.908H237.104V167.601H235.412V165.908Z" fill="#EF3A3A"/>
<path d="M254.446 170.141H232.029V170.989H255.715V170.141H254.446Z" fill="#EF3A3A"/>
<path d="M248.101 165.908H249.793V167.601H248.101V165.908Z" fill="#EF3A3A"/>
<path d="M250.652 147.279L248.084 147.281L248.009 149.397H249.37C249.604 149.397 249.793 149.587 249.793 149.821C249.793 150.054 249.604 150.244 249.37 150.244H247.98L247.92 151.937H249.37C249.604 151.937 249.793 152.127 249.793 152.361C249.793 152.594 249.604 152.784 249.37 152.784H247.89L247.771 156.165L250.897 154.078L250.652 147.279Z" fill="#EF3A3A"/>
<path d="M115.573 461.257H117.265V462.951H115.573V461.257Z" fill="#EF3A3A"/>
<path d="M109.665 442.628L107.097 442.63L107.022 444.747H108.383C108.616 444.747 108.806 444.936 108.806 445.17C108.806 445.404 108.616 445.594 108.383 445.594H106.992L106.932 447.287H108.383C108.616 447.287 108.806 447.476 108.806 447.71C108.806 447.944 108.616 448.134 108.383 448.134H106.903L106.783 451.514L109.91 449.428L109.665 442.628Z" fill="#EF3A3A"/>
<path d="M111.344 461.257H113.036V462.951H111.344V461.257Z" fill="#EF3A3A"/>
<path d="M116.01 442.628L113.442 442.63L113.367 444.747H114.727C114.961 444.747 115.15 444.936 115.15 445.17C115.15 445.404 114.961 445.594 114.727 445.594H113.337L113.277 447.287H114.727C114.961 447.287 115.15 447.476 115.15 447.71C115.15 447.944 114.961 448.134 114.727 448.134H113.247L113.128 451.514L116.255 449.428L116.01 442.628Z" fill="#EF3A3A"/>
<path d="M125.725 456.177H124.033C123.92 456.177 123.813 456.132 123.734 456.053C123.654 455.974 123.61 455.866 123.61 455.754V449.771L118.111 453.44V454.907C118.111 455.141 117.922 455.331 117.688 455.331C117.455 455.331 117.265 455.141 117.265 454.907V449.771L111.767 453.44V454.907C111.767 455.141 111.577 455.33 111.344 455.33C111.11 455.33 110.921 455.141 110.921 454.907V449.771L105.422 453.44V464.644H125.725L125.725 456.177ZM109.652 462.951C109.651 463.175 109.562 463.39 109.404 463.549C109.245 463.708 109.03 463.797 108.806 463.797H107.114C106.89 463.797 106.675 463.708 106.516 463.549C106.357 463.39 106.268 463.175 106.268 462.951V461.257C106.268 461.033 106.357 460.818 106.516 460.659C106.675 460.5 106.89 460.411 107.114 460.411H108.806C109.03 460.411 109.245 460.5 109.404 460.659C109.562 460.818 109.651 461.033 109.652 461.257V462.951ZM113.881 462.951H113.881C113.881 463.175 113.792 463.39 113.633 463.549C113.475 463.708 113.26 463.797 113.035 463.797H111.344C111.119 463.797 110.904 463.708 110.746 463.549C110.587 463.39 110.498 463.175 110.498 462.951V461.257C110.498 461.033 110.587 460.818 110.746 460.659C110.904 460.5 111.119 460.411 111.344 460.411H113.035C113.26 460.411 113.475 460.5 113.633 460.659C113.792 460.818 113.881 461.033 113.881 461.257L113.881 462.951ZM118.111 462.951H118.111C118.111 463.175 118.022 463.39 117.863 463.549C117.704 463.708 117.489 463.797 117.265 463.797H115.573C115.349 463.797 115.134 463.708 114.975 463.549C114.817 463.39 114.728 463.175 114.727 462.951V461.257C114.728 461.033 114.817 460.818 114.975 460.659C115.134 460.5 115.349 460.411 115.573 460.411H117.265C117.489 460.411 117.704 460.5 117.863 460.659C118.022 460.818 118.111 461.033 118.111 461.257L118.111 462.951ZM118.111 458.717V459.141H118.111C118.111 459.374 117.922 459.564 117.688 459.564C117.454 459.564 117.265 459.374 117.265 459.141V458.717H109.652C109.418 458.717 109.229 458.528 109.229 458.294C109.229 458.06 109.418 457.871 109.652 457.871H110.498V457.024H107.537C107.303 457.024 107.114 456.834 107.114 456.601C107.114 456.367 107.303 456.177 107.537 456.177H107.96V455.754C107.96 455.52 108.149 455.33 108.383 455.33C108.616 455.33 108.806 455.52 108.806 455.754V456.177H115.996C116.23 456.177 116.419 456.367 116.419 456.601C116.419 456.834 116.23 457.024 115.996 457.024H111.344V457.871H118.111C118.345 457.871 118.534 458.06 118.534 458.294C118.534 458.528 118.345 458.717 118.111 458.717L118.111 458.717ZM122.341 462.951C122.34 463.175 122.251 463.39 122.093 463.549C121.934 463.708 121.719 463.797 121.495 463.797H119.803C119.579 463.797 119.364 463.708 119.205 463.549C119.046 463.39 118.957 463.175 118.957 462.951V461.257C118.957 461.033 119.046 460.818 119.205 460.659C119.364 460.5 119.579 460.411 119.803 460.411H121.495C121.719 460.411 121.934 460.5 122.093 460.659C122.251 460.818 122.34 461.033 122.341 461.257V462.951Z" fill="#EF3A3A"/>
<path d="M107.114 461.257H108.806V462.951H107.114V461.257Z" fill="#EF3A3A"/>
<path d="M126.147 465.491H103.73V466.338H127.416V465.491H126.147Z" fill="#EF3A3A"/>
<path d="M119.803 461.257H121.495V462.951H119.803V461.257Z" fill="#EF3A3A"/>
<path d="M122.354 442.628L119.786 442.63L119.711 444.747H121.072C121.305 444.747 121.495 444.936 121.495 445.17C121.495 445.404 121.305 445.594 121.072 445.594H119.681L119.621 447.287H121.072C121.305 447.287 121.495 447.476 121.495 447.71C121.495 447.944 121.305 448.134 121.072 448.134H119.591L119.472 451.514L122.599 449.428L122.354 442.628Z" fill="#EF3A3A"/>
<path d="M122.975 460.409L157.517 565.115L175.775 538.444" stroke="black"/>
<path d="M157.517 564.621L208.343 579.437" stroke="black"/>
<path d="M157.517 565.114L250.287 533.999" stroke="black"/>
<path d="M440.267 528.427H441.959V530.12H440.267V528.427Z" fill="#EF3A3A"/>
<path d="M434.358 509.798L431.79 509.8L431.715 511.917H433.076C433.31 511.917 433.499 512.106 433.499 512.34C433.499 512.574 433.31 512.763 433.076 512.763H431.686L431.626 514.457H433.076C433.31 514.457 433.499 514.646 433.499 514.88C433.499 515.114 433.31 515.304 433.076 515.304H431.596L431.477 518.684L434.603 516.598L434.358 509.798Z" fill="#EF3A3A"/>
<path d="M436.037 528.427H437.729V530.12H436.037V528.427Z" fill="#EF3A3A"/>
<path d="M440.703 509.798L438.135 509.8L438.06 511.917H439.421C439.654 511.917 439.844 512.106 439.844 512.34C439.844 512.574 439.654 512.763 439.421 512.763H438.03L437.971 514.457H439.421C439.654 514.457 439.844 514.646 439.844 514.88C439.844 515.114 439.654 515.304 439.421 515.304H437.941L437.821 518.684L440.948 516.598L440.703 509.798Z" fill="#EF3A3A"/>
<path d="M450.418 523.347H448.726C448.614 523.347 448.506 523.302 448.427 523.223C448.348 523.144 448.303 523.036 448.303 522.924V516.941L442.805 520.61V522.077C442.805 522.311 442.615 522.5 442.382 522.5C442.148 522.5 441.959 522.311 441.959 522.077V516.941L436.46 520.61V522.077C436.46 522.311 436.271 522.5 436.037 522.5C435.804 522.5 435.614 522.311 435.614 522.077V516.941L430.116 520.61V531.814H450.418L450.418 523.347ZM434.345 530.121C434.345 530.345 434.256 530.56 434.097 530.719C433.938 530.878 433.723 530.967 433.499 530.967H431.807C431.583 530.967 431.368 530.878 431.209 530.719C431.051 530.56 430.962 530.345 430.961 530.121V528.427C430.962 528.203 431.051 527.988 431.209 527.829C431.368 527.67 431.583 527.581 431.807 527.581H433.499C433.723 527.581 433.938 527.67 434.097 527.829C434.256 527.988 434.345 528.203 434.345 528.427V530.121ZM438.575 530.121H438.575C438.574 530.345 438.485 530.56 438.327 530.719C438.168 530.878 437.953 530.967 437.729 530.967H436.037C435.813 530.967 435.598 530.878 435.439 530.719C435.28 530.56 435.191 530.345 435.191 530.121V528.427C435.191 528.203 435.28 527.988 435.439 527.829C435.598 527.67 435.813 527.581 436.037 527.581H437.729C437.953 527.581 438.168 527.67 438.327 527.829C438.485 527.988 438.574 528.203 438.575 528.427L438.575 530.121ZM442.804 530.121H442.804C442.804 530.345 442.715 530.56 442.556 530.719C442.398 530.878 442.183 530.967 441.958 530.967H440.267C440.042 530.967 439.827 530.878 439.669 530.719C439.51 530.56 439.421 530.345 439.421 530.121V528.427C439.421 528.203 439.51 527.988 439.669 527.829C439.827 527.67 440.042 527.581 440.267 527.581H441.958C442.183 527.581 442.398 527.67 442.556 527.829C442.715 527.988 442.804 528.203 442.804 528.427L442.804 530.121ZM442.804 525.887V526.311H442.804C442.804 526.544 442.615 526.734 442.381 526.734C442.148 526.734 441.958 526.544 441.958 526.311V525.887H434.345C434.111 525.887 433.922 525.698 433.922 525.464C433.922 525.23 434.111 525.04 434.345 525.04H435.191V524.194H432.23C431.997 524.194 431.807 524.004 431.807 523.77C431.807 523.537 431.997 523.347 432.23 523.347H432.653V522.924C432.653 522.69 432.843 522.5 433.076 522.5C433.31 522.5 433.499 522.69 433.499 522.924V523.347H440.689C440.923 523.347 441.112 523.537 441.112 523.77C441.112 524.004 440.923 524.194 440.689 524.194H436.037V525.04H442.804C443.038 525.04 443.227 525.23 443.227 525.464C443.227 525.698 443.038 525.887 442.804 525.887L442.804 525.887ZM447.034 530.121C447.034 530.345 446.945 530.56 446.786 530.719C446.627 530.878 446.412 530.967 446.188 530.967H444.496C444.272 530.967 444.057 530.878 443.898 530.719C443.74 530.56 443.651 530.345 443.65 530.121V528.427C443.651 528.203 443.74 527.988 443.898 527.829C444.057 527.67 444.272 527.581 444.496 527.581H446.188C446.412 527.581 446.627 527.67 446.786 527.829C446.945 527.988 447.034 528.203 447.034 528.427V530.121Z" fill="#EF3A3A"/>
<path d="M431.807 528.427H433.499V530.12H431.807V528.427Z" fill="#EF3A3A"/>
<path d="M450.841 532.661H428.424V533.508H452.11V532.661H450.841Z" fill="#EF3A3A"/>
<path d="M444.497 528.427H446.189V530.12H444.497V528.427Z" fill="#EF3A3A"/>
<path d="M447.048 509.798L444.48 509.8L444.405 511.917H445.765C445.999 511.917 446.189 512.106 446.189 512.34C446.189 512.574 445.999 512.763 445.765 512.763H444.375L444.315 514.457H445.765C445.999 514.457 446.188 514.646 446.188 514.88C446.188 515.114 445.999 515.304 445.765 515.304H444.285L444.166 518.684L447.293 516.598L447.048 509.798Z" fill="#EF3A3A"/>
<path d="M429.904 526.591L332.2 494.981" stroke="black"/>
<path d="M339.602 480.164L378.092 464.854" stroke="black"/>
<path d="M324.798 478.189L290.256 453.988" stroke="black"/>
<path d="M328.746 493.499L231.535 482.634" stroke="black"/>
<path d="M239.431 169.01L295.191 341.874" stroke="black"/>
<path d="M448.656 524.615L458.031 424.848" stroke="black"/>
<path d="M438.293 443.122L458.031 424.848" stroke="black"/>
<path d="M455.071 403.611L451.123 385.336" stroke="black"/>
<path d="M215.745 705.875L304.073 651.546" stroke="black"/>
<path d="M215.745 705.875L273.972 780.947" stroke="black"/>
<path d="M207.356 706.229H209.048V707.923H207.356V706.229Z" fill="#EF3A3A"/>
<path d="M201.448 687.601L198.88 687.602L198.805 689.719H200.165C200.399 689.719 200.588 689.909 200.588 690.142C200.588 690.376 200.399 690.566 200.165 690.566H198.775L198.715 692.259H200.165C200.399 692.259 200.588 692.449 200.588 692.682C200.588 692.916 200.399 693.106 200.165 693.106H198.685L198.566 696.487L201.693 694.4L201.448 687.601Z" fill="#EF3A3A"/>
<path d="M203.126 706.229H204.819V707.923H203.126V706.229Z" fill="#EF3A3A"/>
<path d="M207.792 687.601L205.224 687.602L205.149 689.719H206.51C206.744 689.719 206.933 689.909 206.933 690.142C206.933 690.376 206.744 690.566 206.51 690.566H205.12L205.06 692.259H206.51C206.744 692.259 206.933 692.449 206.933 692.682C206.933 692.916 206.744 693.106 206.51 693.106H205.03L204.911 696.487L208.037 694.4L207.792 687.601Z" fill="#EF3A3A"/>
<path d="M217.507 701.149H215.815C215.703 701.149 215.596 701.105 215.516 701.025C215.437 700.946 215.392 700.838 215.392 700.726V694.743L209.894 698.412V699.879C209.894 700.113 209.704 700.303 209.471 700.303C209.237 700.303 209.048 700.113 209.048 699.879V694.743L203.549 698.412V699.879C203.549 700.113 203.36 700.303 203.127 700.303C202.893 700.303 202.704 700.113 202.704 699.879V694.743L197.205 698.412V709.616H217.508L217.507 701.149ZM201.434 707.923C201.434 708.147 201.345 708.362 201.186 708.521C201.028 708.68 200.813 708.769 200.589 708.769H198.897C198.672 708.769 198.457 708.68 198.299 708.521C198.14 708.362 198.051 708.147 198.051 707.923V706.229C198.051 706.005 198.14 705.79 198.299 705.631C198.457 705.472 198.672 705.383 198.897 705.383H200.589C200.813 705.383 201.028 705.472 201.186 705.631C201.345 705.79 201.434 706.005 201.434 706.229V707.923ZM205.664 707.923H205.664C205.664 708.147 205.575 708.362 205.416 708.521C205.257 708.68 205.042 708.769 204.818 708.769H203.126C202.902 708.769 202.687 708.68 202.528 708.521C202.37 708.362 202.281 708.147 202.28 707.923V706.229C202.281 706.005 202.37 705.79 202.528 705.631C202.687 705.472 202.902 705.383 203.126 705.383H204.818C205.042 705.383 205.258 705.472 205.416 705.631C205.575 705.79 205.664 706.005 205.664 706.229L205.664 707.923ZM209.894 707.923H209.894C209.894 708.147 209.804 708.362 209.646 708.521C209.487 708.68 209.272 708.769 209.048 708.769H207.356C207.132 708.769 206.917 708.68 206.758 708.521C206.6 708.362 206.51 708.147 206.51 707.923V706.229C206.51 706.005 206.6 705.79 206.758 705.631C206.917 705.472 207.132 705.383 207.356 705.383H209.048C209.272 705.383 209.487 705.472 209.646 705.631C209.804 705.79 209.894 706.005 209.894 706.229L209.894 707.923ZM209.894 703.689V704.113H209.894C209.894 704.346 209.704 704.536 209.471 704.536C209.237 704.536 209.048 704.346 209.048 704.113V703.689H201.434C201.201 703.689 201.011 703.5 201.011 703.266C201.011 703.032 201.201 702.843 201.434 702.843H202.28V701.996H199.32C199.086 701.996 198.897 701.806 198.897 701.573C198.897 701.339 199.086 701.149 199.32 701.149H199.743V700.726C199.743 700.492 199.932 700.303 200.165 700.303C200.399 700.303 200.589 700.492 200.589 700.726V701.149H207.779C208.012 701.149 208.202 701.339 208.202 701.573C208.202 701.806 208.012 701.996 207.779 701.996H203.126V702.843H209.894C210.127 702.843 210.317 703.032 210.317 703.266C210.317 703.5 210.127 703.689 209.894 703.689L209.894 703.689ZM214.123 707.923C214.123 708.147 214.034 708.362 213.875 708.521C213.717 708.68 213.502 708.769 213.278 708.769H211.586C211.361 708.769 211.146 708.68 210.988 708.521C210.829 708.362 210.74 708.147 210.74 707.923V706.229C210.74 706.005 210.829 705.79 210.988 705.631C211.146 705.472 211.361 705.383 211.586 705.383H213.278C213.502 705.383 213.717 705.472 213.875 705.631C214.034 705.79 214.123 706.005 214.123 706.229V707.923Z" fill="#EF3A3A"/>
<path d="M198.896 706.229H200.589V707.923H198.896V706.229Z" fill="#EF3A3A"/>
<path d="M217.93 710.463H195.513V711.31H219.199V710.463H217.93Z" fill="#EF3A3A"/>
<path d="M211.585 706.229H213.278V707.923H211.585V706.229Z" fill="#EF3A3A"/>
<path d="M214.136 687.601L211.569 687.602L211.494 689.719H212.854C213.088 689.719 213.277 689.909 213.277 690.142C213.277 690.376 213.088 690.566 212.854 690.566H211.464L211.404 692.259H212.854C213.088 692.259 213.277 692.449 213.277 692.682C213.277 692.916 213.088 693.106 212.854 693.106H211.374L211.255 696.487L214.382 694.4L214.136 687.601Z" fill="#EF3A3A"/>
<path d="M170.059 373.859C170.282 374.082 170.561 374.194 170.841 374.194C171.12 374.194 171.399 374.082 171.622 373.859L177.82 367.655C181.673 363.799 181.673 357.512 177.82 353.656C173.968 349.8 167.714 349.8 163.861 353.656C160.009 357.512 160.008 363.799 163.861 367.655L170.059 373.859ZM165.425 355.277C168.412 352.287 173.27 352.287 176.257 355.277C179.216 358.267 179.216 363.101 176.257 366.09L170.841 371.484L165.425 366.09C162.465 363.101 162.437 358.238 165.425 355.277Z" fill="#EF3A3A"/>
<path d="M170.841 364.593L148.142 391.263" stroke="black"/>
<path d="M170.84 364.593L182.683 400.153" stroke="black"/>
<path d="M216.238 370.026L169.854 364.593" stroke="black"/>
<path d="M296.383 363.981C296.607 364.204 296.886 364.316 297.165 364.316C297.444 364.316 297.723 364.204 297.947 363.981L304.145 357.777C307.997 353.921 307.997 347.634 304.145 343.778C300.292 339.922 294.038 339.922 290.185 343.778C286.333 347.634 286.333 353.921 290.185 357.777L296.383 363.981ZM291.749 345.399C294.736 342.409 299.594 342.409 302.581 345.399C305.54 348.389 305.54 353.223 302.581 356.213L297.165 361.606L291.749 356.213C288.79 353.223 288.762 348.361 291.749 345.399Z" fill="#EF3A3A"/>
<path d="M295.191 342.368L331.214 331.502" stroke="black"/>
<path d="M306.047 351.258L384.013 381.879" stroke="black"/>
<path d="M297.659 363.605L318.384 378.916" stroke="black"/>
<path d="M457.25 425.224C457.473 425.447 457.752 425.559 458.032 425.559C458.311 425.559 458.59 425.447 458.813 425.224L465.011 419.021C468.864 415.164 468.864 408.877 465.011 405.021C461.158 401.165 454.905 401.165 451.052 405.021C447.199 408.877 447.199 415.164 451.052 419.021L457.25 425.224ZM452.616 406.642C455.603 403.652 460.461 403.652 463.448 406.642C466.407 409.632 466.407 414.466 463.448 417.456L458.032 422.849L452.616 417.456C449.656 414.466 449.628 409.604 452.616 406.642Z" fill="#EF3A3A"/>
<path d="M303.291 652.416C303.515 652.639 303.794 652.751 304.073 652.751C304.352 652.751 304.632 652.639 304.855 652.416L311.053 646.212C314.906 642.356 314.906 636.069 311.053 632.213C307.2 628.357 300.946 628.357 297.094 632.213C293.241 636.069 293.241 642.356 297.094 646.212L303.291 652.416ZM298.657 633.834C301.644 630.844 306.502 630.844 309.489 633.834C312.449 636.824 312.449 641.658 309.489 644.648L304.073 650.041L298.657 644.648C295.698 641.658 295.67 636.796 298.657 633.834Z" fill="#EF3A3A"/>
<path d="M279.606 800.585C279.829 800.808 280.108 800.92 280.388 800.92C280.667 800.92 280.946 800.808 281.169 800.585L287.367 794.381C291.22 790.525 291.22 784.238 287.367 780.382C283.514 776.526 277.261 776.526 273.408 780.382C269.555 784.238 269.555 790.525 273.408 794.381L279.606 800.585ZM274.971 782.003C277.959 779.013 282.816 779.013 285.804 782.003C288.763 784.993 288.763 789.827 285.804 792.817L280.388 798.21L274.971 792.817C272.012 789.827 271.984 784.965 274.971 782.003Z" fill="#EF3A3A"/>
<path d="M330.925 496.345C331.149 496.569 331.428 496.68 331.707 496.68C331.986 496.68 332.265 496.569 332.489 496.345L338.687 490.142C342.539 486.285 342.539 479.998 338.687 476.142C334.834 472.286 328.58 472.286 324.727 476.142C320.875 479.998 320.875 486.285 324.727 490.142L330.925 496.345ZM326.291 477.763C329.278 474.773 334.136 474.773 337.123 477.763C340.082 480.753 340.082 485.587 337.123 488.577L331.707 493.97L326.291 488.577C323.332 485.587 323.304 480.725 326.291 477.763Z" fill="#EF3A3A"/>
<path d="M230.949 483.657C231.117 483.824 231.326 483.908 231.536 483.908C231.745 483.908 231.954 483.824 232.122 483.657L236.77 479.004C239.66 476.112 239.66 471.397 236.77 468.505C233.881 465.612 229.19 465.612 226.301 468.505C223.411 471.397 223.411 476.112 226.301 479.004L230.949 483.657ZM227.473 469.72C229.714 467.478 233.357 467.478 235.598 469.72C237.817 471.963 237.817 475.588 235.598 477.831L231.536 481.875L227.473 477.831C225.254 475.588 225.233 471.942 227.473 469.72Z" fill="#292666"/>
<path d="M181.604 545.887C181.771 546.055 181.98 546.139 182.19 546.139C182.399 546.139 182.609 546.055 182.776 545.887L187.425 541.235C190.314 538.342 190.314 533.627 187.425 530.735C184.535 527.843 179.845 527.843 176.955 530.735C174.066 533.627 174.066 538.343 176.955 541.235L181.604 545.887ZM178.128 531.951C180.368 529.708 184.012 529.708 186.252 531.951C188.471 534.193 188.471 537.819 186.252 540.061L182.19 544.106L178.128 540.061C175.908 537.819 175.887 534.172 178.128 531.951Z" fill="#292666"/>
<path d="M256.609 541.936C256.777 542.104 256.986 542.188 257.195 542.188C257.405 542.188 257.614 542.104 257.782 541.936L262.43 537.284C265.32 534.392 265.32 529.676 262.43 526.784C259.54 523.892 254.85 523.892 251.961 526.784C249.071 529.676 249.071 534.392 251.961 537.284L256.609 541.936ZM253.133 528C255.374 525.757 259.017 525.757 261.257 528C263.477 530.242 263.477 533.868 261.257 536.11L257.195 540.155L253.133 536.11C250.914 533.868 250.893 530.221 253.133 528Z" fill="#292666"/>
<path d="M214.172 587.374C214.339 587.542 214.548 587.626 214.758 587.626C214.967 587.626 215.177 587.542 215.344 587.374L219.992 582.722C222.882 579.83 222.882 575.114 219.992 572.222C217.103 569.33 212.413 569.33 209.523 572.222C206.634 575.114 206.634 579.83 209.523 582.722L214.172 587.374ZM210.696 573.438C212.936 571.195 216.579 571.195 218.82 573.438C221.039 575.68 221.039 579.306 218.82 581.548L214.758 585.593L210.696 581.548C208.476 579.306 208.455 575.659 210.696 573.438Z" fill="#292666"/>
<path d="M440.174 458.962C440.342 459.13 440.551 459.213 440.761 459.213C440.97 459.213 441.179 459.13 441.347 458.962L445.995 454.309C448.885 451.417 448.885 446.702 445.995 443.81C443.106 440.918 438.416 440.918 435.526 443.81C432.637 446.702 432.636 451.417 435.526 454.309L440.174 458.962ZM436.699 445.025C438.939 442.783 442.582 442.783 444.823 445.025C447.042 447.268 447.042 450.893 444.823 453.136L440.761 457.181L436.699 453.136C434.479 450.893 434.458 447.247 436.699 445.025Z" fill="#292666"/>
<path d="M450.044 385.865C450.211 386.033 450.42 386.117 450.63 386.117C450.839 386.117 451.049 386.033 451.216 385.865L455.865 381.213C458.754 378.321 458.754 373.605 455.865 370.713C452.975 367.821 448.285 367.821 445.395 370.713C442.506 373.605 442.506 378.321 445.395 381.213L450.044 385.865ZM446.568 371.929C448.808 369.686 452.451 369.686 454.692 371.929C456.911 374.171 456.911 377.797 454.692 380.039L450.63 384.084L446.568 380.039C444.348 377.797 444.327 374.15 446.568 371.929Z" fill="#292666"/>
<path d="M323.719 391.792C323.886 391.96 324.096 392.043 324.305 392.043C324.515 392.043 324.724 391.96 324.891 391.792L329.54 387.139C332.429 384.247 332.429 379.532 329.54 376.64C326.65 373.748 321.96 373.748 319.07 376.64C316.181 379.532 316.181 384.247 319.07 387.139L323.719 391.792ZM320.243 377.855C322.484 375.613 326.127 375.613 328.367 377.855C330.587 380.098 330.587 383.723 328.367 385.966L324.305 390.011L320.243 385.966C318.024 383.723 318.003 380.077 320.243 377.855Z" fill="#292666"/>
<path d="M330.627 333.512C330.795 333.68 331.004 333.764 331.213 333.764C331.423 333.764 331.632 333.68 331.8 333.512L336.448 328.86C339.338 325.967 339.338 321.252 336.448 318.36C333.558 315.468 328.868 315.468 325.979 318.36C323.089 321.252 323.089 325.968 325.979 328.86L330.627 333.512ZM327.151 319.576C329.392 317.333 333.035 317.333 335.275 319.576C337.495 321.818 337.495 325.444 335.275 327.686L331.213 331.731L327.151 327.686C324.932 325.444 324.911 321.797 327.151 319.576Z" fill="#292666"/>
<path d="M383.921 381.914C384.088 382.082 384.297 382.165 384.507 382.165C384.716 382.165 384.926 382.082 385.093 381.914L389.741 377.261C392.631 374.369 392.631 369.654 389.741 366.762C386.852 363.87 382.162 363.87 379.272 366.762C376.383 369.654 376.383 374.369 379.272 377.261L383.921 381.914ZM380.445 367.977C382.685 365.735 386.328 365.735 388.569 367.977C390.788 370.22 390.788 373.845 388.569 376.088L384.507 380.133L380.445 376.088C378.225 373.846 378.204 370.199 380.445 367.977Z" fill="#292666"/>
<path d="M145.088 406.609C145.256 406.777 145.465 406.86 145.674 406.86C145.884 406.86 146.093 406.777 146.261 406.609L150.909 401.956C153.799 399.064 153.799 394.349 150.909 391.457C148.019 388.565 143.329 388.565 140.44 391.457C137.55 394.349 137.55 399.064 140.44 401.956L145.088 406.609ZM141.612 392.672C143.853 390.43 147.496 390.43 149.736 392.672C151.956 394.915 151.956 398.54 149.736 400.783L145.674 404.827L141.612 400.783C139.393 398.54 139.372 394.894 141.612 392.672Z" fill="#292666"/>
<path d="M183.577 416.487C183.745 416.654 183.954 416.738 184.164 416.738C184.373 416.738 184.582 416.654 184.75 416.487L189.398 411.834C192.288 408.942 192.288 404.227 189.398 401.335C186.509 398.442 181.818 398.442 178.929 401.335C176.039 404.227 176.039 408.942 178.929 411.834L183.577 416.487ZM180.101 402.55C182.342 400.308 185.985 400.308 188.226 402.55C190.445 404.793 190.445 408.418 188.226 410.661L184.164 414.705L180.101 410.661C177.882 408.418 177.861 404.772 180.101 402.55Z" fill="#292666"/>
<path d="M221.08 382.902C221.248 383.069 221.457 383.153 221.666 383.153C221.876 383.153 222.085 383.069 222.253 382.902L226.901 378.249C229.791 375.357 229.791 370.642 226.901 367.75C224.012 364.858 219.321 364.858 216.432 367.75C213.542 370.642 213.542 375.357 216.432 378.249L221.08 382.902ZM217.604 368.965C219.845 366.723 223.488 366.723 225.729 368.965C227.948 371.208 227.948 374.833 225.729 377.076L221.666 381.12L217.604 377.076C215.385 374.833 215.364 371.187 217.604 368.965Z" fill="#292666"/>
<path d="M289.177 455.011C289.344 455.178 289.554 455.262 289.763 455.262C289.973 455.262 290.182 455.178 290.349 455.011L294.998 450.358C297.887 447.466 297.887 442.751 294.998 439.859C292.108 436.966 287.418 436.966 284.528 439.859C281.639 442.751 281.639 447.466 284.528 450.358L289.177 455.011ZM285.701 441.074C287.942 438.832 291.585 438.832 293.825 441.074C296.045 443.317 296.045 446.942 293.825 449.185L289.763 453.229L285.701 449.185C283.482 446.942 283.461 443.296 285.701 441.074Z" fill="#292666"/>
<path d="M377.012 465.876C377.179 466.044 377.389 466.128 377.598 466.128C377.808 466.128 378.017 466.044 378.184 465.876L382.833 461.224C385.722 458.332 385.722 453.616 382.833 450.724C379.943 447.832 375.253 447.832 372.363 450.724C369.474 453.616 369.474 458.332 372.363 461.224L377.012 465.876ZM373.536 451.94C375.776 449.697 379.42 449.697 381.66 451.94C383.88 454.182 383.88 457.808 381.66 460.05L377.598 464.095L373.536 460.05C371.317 457.808 371.296 454.161 373.536 451.94Z" fill="#292666"/>
<path d="M156.242 587.221C156.465 587.445 156.744 587.557 157.023 587.557C157.303 587.557 157.582 587.445 157.805 587.221L164.003 581.018C167.856 577.162 167.856 570.875 164.003 567.019C160.15 563.162 153.897 563.162 150.044 567.019C146.191 570.875 146.191 577.162 150.044 581.018L156.242 587.221ZM151.607 568.639C154.595 565.649 159.452 565.649 162.439 568.639C165.399 571.629 165.399 576.463 162.439 579.453L157.023 584.846L151.607 579.453C148.648 576.463 148.62 571.601 151.607 568.639Z" fill="#EF3A3A"/>
<path d="M238.937 168.022L170.347 364.593" stroke="black"/>
</g>
<defs>
<filter id="filter0_d_0_4967" x="0" y="0" width="770" height="906" filterUnits="userSpaceOnUse" color-interpolation-filters="sRGB">
<feFlood flood-opacity="0" result="BackgroundImageFix"/>
<feColorMatrix in="SourceAlpha" type="matrix" values="0 0 0 0 0 0 0 0 0 0 0 0 0 0 0 0 0 0 127 0" result="hardAlpha"/>
<feOffset/>
<feGaussianBlur stdDeviation="4"/>
<feComposite in2="hardAlpha" operator="out"/>
<feColorMatrix type="matrix" values="0 0 0 0 0.835294 0 0 0 0 0.85098 0 0 0 0 0.866667 0 0 0 0.4 0"/>
<feBlend mode="normal" in2="BackgroundImageFix" result="effect1_dropShadow_0_4967"/>
<feBlend mode="normal" in="SourceGraphic" in2="effect1_dropShadow_0_4967" result="shape"/>
</filter>
<clipPath id="clip0_0_4967">
<rect width="704.654" height="786.282" fill="white" transform="translate(32.6729 82.0845)"/>
</clipPath>
</defs>
</svg>
