<svg width="770" height="906" viewBox="0 0 770 906" fill="none" xmlns="http://www.w3.org/2000/svg">
<g filter="url(#filter0_d_0_5100)">
<rect x="8" y="8" width="754" height="890" rx="10" fill="white"/>
</g>
<path d="M31.7842 46.7778L25.6642 32.7778H28.4842L33.9442 45.4378H32.3242L37.8442 32.7778H40.4442L34.3442 46.7778H31.7842ZM47.4607 46.7778V44.6178L47.3207 44.1578V40.3778C47.3207 39.6445 47.1007 39.0778 46.6607 38.6778C46.2207 38.2645 45.5541 38.0578 44.6607 38.0578C44.0607 38.0578 43.4674 38.1512 42.8807 38.3378C42.3074 38.5245 41.8207 38.7845 41.4207 39.1178L40.4407 37.2978C41.0141 36.8578 41.6941 36.5312 42.4807 36.3178C43.2807 36.0912 44.1074 35.9778 44.9607 35.9778C46.5074 35.9778 47.7007 36.3512 48.5407 37.0978C49.3941 37.8312 49.8207 38.9712 49.8207 40.5178V46.7778H47.4607ZM44.1007 46.9178C43.3007 46.9178 42.6007 46.7845 42.0007 46.5178C41.4007 46.2378 40.9341 45.8578 40.6007 45.3778C40.2807 44.8845 40.1207 44.3312 40.1207 43.7178C40.1207 43.1178 40.2607 42.5778 40.5407 42.0978C40.8341 41.6178 41.3074 41.2378 41.9607 40.9578C42.6141 40.6778 43.4807 40.5378 44.5607 40.5378H47.6607V42.1978H44.7407C43.8874 42.1978 43.3141 42.3378 43.0207 42.6178C42.7274 42.8845 42.5807 43.2178 42.5807 43.6178C42.5807 44.0712 42.7607 44.4312 43.1207 44.6978C43.4807 44.9645 43.9807 45.0978 44.6207 45.0978C45.2341 45.0978 45.7807 44.9578 46.2607 44.6778C46.7541 44.3978 47.1074 43.9845 47.3207 43.4378L47.7407 44.9378C47.5007 45.5645 47.0674 46.0512 46.4407 46.3978C45.8274 46.7445 45.0474 46.9178 44.1007 46.9178ZM53.0292 46.7778V31.9378H55.5292V46.7778H53.0292ZM63.3304 46.9178C62.4237 46.9178 61.6237 46.7512 60.9304 46.4178C60.2371 46.0712 59.6971 45.5512 59.3104 44.8578C58.9237 44.1512 58.7304 43.2645 58.7304 42.1978V36.0978H61.2304V41.8578C61.2304 42.8178 61.4437 43.5378 61.8704 44.0178C62.3104 44.4845 62.9304 44.7178 63.7304 44.7178C64.3171 44.7178 64.8237 44.5978 65.2504 44.3578C65.6904 44.1178 66.0304 43.7578 66.2704 43.2778C66.5237 42.7978 66.6504 42.2045 66.6504 41.4978V36.0978H69.1504V46.7778H66.7704V43.8978L67.1904 44.7778C66.8304 45.4712 66.3037 46.0045 65.6104 46.3778C64.9171 46.7378 64.1571 46.9178 63.3304 46.9178ZM77.4437 46.9178C76.257 46.9178 75.217 46.6845 74.3237 46.2178C73.4437 45.7378 72.757 45.0845 72.2637 44.2578C71.7837 43.4312 71.5437 42.4912 71.5437 41.4378C71.5437 40.3712 71.777 39.4312 72.2437 38.6178C72.7237 37.7912 73.377 37.1445 74.2037 36.6778C75.0437 36.2112 75.997 35.9778 77.0637 35.9778C78.1037 35.9778 79.0304 36.2045 79.8437 36.6578C80.657 37.1112 81.297 37.7512 81.7637 38.5778C82.2304 39.4045 82.4637 40.3778 82.4637 41.4978C82.4637 41.6045 82.457 41.7245 82.4437 41.8578C82.4437 41.9912 82.437 42.1178 82.4237 42.2378H73.5237V40.5778H81.1037L80.1237 41.0978C80.137 40.4845 80.0104 39.9445 79.7437 39.4778C79.477 39.0112 79.1104 38.6445 78.6437 38.3778C78.1904 38.1112 77.6637 37.9778 77.0637 37.9778C76.4504 37.9778 75.9104 38.1112 75.4437 38.3778C74.9904 38.6445 74.6304 39.0178 74.3637 39.4978C74.1104 39.9645 73.9837 40.5178 73.9837 41.1578V41.5578C73.9837 42.1978 74.1304 42.7645 74.4237 43.2578C74.717 43.7512 75.1304 44.1312 75.6637 44.3978C76.197 44.6645 76.8104 44.7978 77.5037 44.7978C78.1037 44.7978 78.6437 44.7045 79.1237 44.5178C79.6037 44.3312 80.0304 44.0378 80.4037 43.6378L81.7437 45.1778C81.2637 45.7378 80.657 46.1712 79.9237 46.4778C79.2037 46.7712 78.377 46.9178 77.4437 46.9178ZM90.6324 46.7778V32.7778H92.7724L98.8924 42.9978H97.7724L103.792 32.7778H105.932L105.952 46.7778H103.492L103.472 36.6378H103.992L98.8724 45.1778H97.7124L92.5124 36.6378H93.1124V46.7778H90.6324ZM116.074 46.7778V44.6178L115.934 44.1578V40.3778C115.934 39.6445 115.714 39.0778 115.274 38.6778C114.834 38.2645 114.167 38.0578 113.274 38.0578C112.674 38.0578 112.081 38.1512 111.494 38.3378C110.921 38.5245 110.434 38.7845 110.034 39.1178L109.054 37.2978C109.627 36.8578 110.307 36.5312 111.094 36.3178C111.894 36.0912 112.721 35.9778 113.574 35.9778C115.121 35.9778 116.314 36.3512 117.154 37.0978C118.007 37.8312 118.434 38.9712 118.434 40.5178V46.7778H116.074ZM112.714 46.9178C111.914 46.9178 111.214 46.7845 110.614 46.5178C110.014 46.2378 109.547 45.8578 109.214 45.3778C108.894 44.8845 108.734 44.3312 108.734 43.7178C108.734 43.1178 108.874 42.5778 109.154 42.0978C109.447 41.6178 109.921 41.2378 110.574 40.9578C111.227 40.6778 112.094 40.5378 113.174 40.5378H116.274V42.1978H113.354C112.501 42.1978 111.927 42.3378 111.634 42.6178C111.341 42.8845 111.194 43.2178 111.194 43.6178C111.194 44.0712 111.374 44.4312 111.734 44.6978C112.094 44.9645 112.594 45.0978 113.234 45.0978C113.847 45.0978 114.394 44.9578 114.874 44.6778C115.367 44.3978 115.721 43.9845 115.934 43.4378L116.354 44.9378C116.114 45.5645 115.681 46.0512 115.054 46.3978C114.441 46.7445 113.661 46.9178 112.714 46.9178ZM127.562 46.9178C126.696 46.9178 125.902 46.7178 125.182 46.3178C124.476 45.9178 123.909 45.3178 123.482 44.5178C123.069 43.7045 122.862 42.6778 122.862 41.4378C122.862 40.1845 123.062 39.1578 123.462 38.3578C123.876 37.5578 124.436 36.9645 125.142 36.5778C125.849 36.1778 126.656 35.9778 127.562 35.9778C128.616 35.9778 129.542 36.2045 130.342 36.6578C131.156 37.1112 131.796 37.7445 132.262 38.5578C132.742 39.3712 132.982 40.3312 132.982 41.4378C132.982 42.5445 132.742 43.5112 132.262 44.3378C131.796 45.1512 131.156 45.7845 130.342 46.2378C129.542 46.6912 128.616 46.9178 127.562 46.9178ZM121.642 50.6578V36.0978H124.022V38.6178L123.942 41.4578L124.142 44.2978V50.6578H121.642ZM127.282 44.7778C127.882 44.7778 128.416 44.6445 128.882 44.3778C129.362 44.1112 129.742 43.7245 130.022 43.2178C130.302 42.7112 130.442 42.1178 130.442 41.4378C130.442 40.7445 130.302 40.1512 130.022 39.6578C129.742 39.1512 129.362 38.7645 128.882 38.4978C128.416 38.2312 127.882 38.0978 127.282 38.0978C126.682 38.0978 126.142 38.2312 125.662 38.4978C125.182 38.7645 124.802 39.1512 124.522 39.6578C124.242 40.1512 124.102 40.7445 124.102 41.4378C124.102 42.1178 124.242 42.7112 124.522 43.2178C124.802 43.7245 125.182 44.1112 125.662 44.3778C126.142 44.6445 126.682 44.7778 127.282 44.7778Z" fill="#292666"/>
<rect x="120.508" y="293.789" width="98.6911" height="309.522" fill="#292666"/>
<path d="M219.199 293.535V320.489C221.608 320.359 230.234 320.098 245.461 320.098C318.464 317.364 335.812 287.285 382.794 262.285C420.38 242.285 460.456 240.41 475.796 241.972V210.722C444.715 211.113 426.404 216.191 400.624 224.003C374.843 231.816 346.654 254.473 310.032 274.785C280.734 291.035 237.269 294.056 219.199 293.535Z" fill="#CAE4FF"/>
<path d="M219.199 432.968V459.922C221.608 459.792 230.234 459.531 245.461 459.531C318.464 456.797 335.812 426.718 382.794 401.718C420.38 381.718 460.456 379.843 475.796 381.406V350.155C444.715 350.546 426.404 355.624 400.624 363.437C374.843 371.249 346.654 393.906 310.032 414.218C280.734 430.468 237.269 433.489 219.199 432.968Z" fill="#FFE8B6"/>
<path d="M219.199 602.575V575.622C221.608 575.752 230.234 576.013 245.461 576.013C318.464 578.747 335.812 608.826 382.794 633.826C420.38 653.826 460.456 655.701 475.796 654.138V685.389C444.715 684.998 426.404 679.92 400.624 672.107C374.843 664.295 346.654 641.638 310.032 621.326C280.734 605.075 237.269 602.055 219.199 602.575Z" fill="#F58F89"/>
<path d="M219.199 465.12V438.167C221.608 438.297 230.234 438.557 245.461 438.557C318.464 441.292 335.812 471.37 382.794 496.37C420.38 516.37 460.456 518.245 475.796 516.683V547.933C444.715 547.543 426.404 542.464 400.624 534.652C374.843 526.839 346.654 504.183 310.032 483.87C280.734 467.62 237.269 464.599 219.199 465.12Z" fill="#88E4D2"/>
<rect x="475.796" y="210.722" width="18.7513" height="31.2489" fill="#292666"/>
<path d="M494.547 210.637V227.024C495.95 226.945 500.971 226.787 509.836 226.787C552.336 225.124 562.435 206.837 589.786 191.638C611.667 179.478 634.998 178.338 643.928 179.288V160.288C625.834 160.526 615.174 163.613 600.166 168.363C585.157 173.113 568.747 186.888 547.427 199.238C530.371 209.117 505.067 210.954 494.547 210.637Z" fill="#CAE4FF" fill-opacity="0.6"/>
<path d="M494.547 242.083V227.024C495.95 227.097 500.971 227.243 509.836 227.243C552.336 228.77 562.435 245.575 589.786 259.542C611.667 270.716 634.998 271.763 643.928 270.89V288.349C625.834 288.131 615.174 285.294 600.166 280.929C585.157 276.565 568.747 263.907 547.427 252.558C530.371 243.48 505.067 241.792 494.547 242.083Z" fill="#CAE4FF" fill-opacity="0.6"/>
<rect x="494.547" y="217.405" width="149.38" height="19.0262" fill="#CAE4FF" fill-opacity="0.6"/>
<rect x="643.571" y="160.289" width="5.92147" height="18.7889" fill="#292666"/>
<rect x="640.61" y="217.644" width="5.92147" height="18.7889" fill="#292666"/>
<rect x="640.61" y="271.044" width="5.75698" height="17.3056" fill="#292666"/>
<rect x="475.796" y="516.289" width="18.7513" height="31.2489" fill="#21B79A"/>
<path d="M494.547 516.205V532.592C495.95 532.513 500.971 532.354 509.836 532.354C552.336 530.692 562.435 512.405 589.786 497.205C611.667 485.045 634.998 483.905 643.928 484.855V465.856C625.834 466.093 615.174 469.181 600.166 473.931C585.157 478.68 568.747 492.455 547.427 504.805C530.371 514.685 505.067 516.521 494.547 516.205Z" fill="#88E4D2" fill-opacity="0.5"/>
<path d="M494.547 547.65V532.592C495.95 532.665 500.971 532.81 509.836 532.81C552.336 534.338 562.435 551.142 589.786 565.109C611.667 576.283 634.998 577.331 643.928 576.458V593.917C625.834 593.699 615.174 590.862 600.166 586.497C585.157 582.132 568.747 569.474 547.427 558.126C530.371 549.047 505.067 547.359 494.547 547.65Z" fill="#88E4D2" fill-opacity="0.5"/>
<rect x="494.547" y="522.972" width="149.38" height="18.0368" fill="#88E4D2" fill-opacity="0.5"/>
<rect x="640.61" y="465.855" width="5.92147" height="18.7889" fill="#21B79A"/>
<path d="M637.649 523.211H643.571V542H637.649V523.211Z" fill="#21B79A"/>
<rect x="638.636" y="576.611" width="5.75698" height="17.3056" fill="#21B79A"/>
<rect x="475.796" y="653.939" width="18.7513" height="31.3695" fill="#EF443A"/>
<path d="M494.547 653.855V670.305C495.95 670.226 500.971 670.067 509.836 670.067C552.336 668.398 562.435 650.04 589.786 634.782C611.667 622.575 634.998 621.431 643.928 622.384V603.311C625.834 603.55 615.174 606.649 600.166 611.417C585.157 616.186 568.747 630.014 547.427 642.411C530.371 652.329 505.067 654.173 494.547 653.855Z" fill="#EF443A" fill-opacity="0.6"/>
<path d="M494.547 685.422V670.305C495.95 670.378 500.971 670.524 509.836 670.524C552.336 672.058 562.435 688.927 589.786 702.948C611.667 714.165 634.998 715.217 643.928 714.34V731.867C625.834 731.648 615.174 728.8 600.166 724.418C585.157 720.037 568.747 707.33 547.427 695.938C530.371 686.824 505.067 685.13 494.547 685.422Z" fill="#EF443A" fill-opacity="0.6"/>
<rect x="494.547" y="660.648" width="149.38" height="19.0954" fill="#EF443A" fill-opacity="0.6"/>
<rect x="640.61" y="603.311" width="5.92147" height="18.7889" fill="#EF443A"/>
<path d="M637.649 660.667H643.571V679.455H637.649V660.667Z" fill="#EF443A"/>
<rect x="638.636" y="714.067" width="5.75698" height="17.3056" fill="#EF443A"/>
<rect x="475.796" y="350.156" width="18.7513" height="31.2489" fill="#F1AE17"/>
<path d="M494.547 350.071V366.458C495.95 366.379 500.971 366.221 509.836 366.221C552.336 364.558 562.435 346.271 589.786 331.071C611.667 318.912 634.998 317.772 643.928 318.722V299.722C625.834 299.959 615.174 303.047 600.166 307.797C585.157 312.547 568.747 326.321 547.427 338.671C530.371 348.551 505.067 350.388 494.547 350.071Z" fill="#FFD36F" fill-opacity="0.5"/>
<path d="M494.547 381.516V366.458C495.95 366.531 500.971 366.676 509.836 366.676C552.336 368.204 562.435 385.008 589.786 398.976C611.667 410.149 634.998 411.197 643.928 410.324V427.783C625.834 427.565 615.174 424.728 600.166 420.363C585.157 415.998 568.747 403.34 547.427 391.992C530.371 382.913 505.067 381.225 494.547 381.516Z" fill="#FFD36F" fill-opacity="0.5"/>
<rect x="494.547" y="356.839" width="149.38" height="18.7889" fill="#FFD36F" fill-opacity="0.5"/>
<rect x="640.61" y="299.722" width="5.92147" height="18.7889" fill="#F1AE17"/>
<path d="M637.649 357.078H643.571V375.867H637.649V357.078Z" fill="#F1AE17"/>
<rect x="638.636" y="410.478" width="5.75698" height="17.3056" fill="#F1AE17"/>
<defs>
<filter id="filter0_d_0_5100" x="0" y="0" width="770" height="906" filterUnits="userSpaceOnUse" color-interpolation-filters="sRGB">
<feFlood flood-opacity="0" result="BackgroundImageFix"/>
<feColorMatrix in="SourceAlpha" type="matrix" values="0 0 0 0 0 0 0 0 0 0 0 0 0 0 0 0 0 0 127 0" result="hardAlpha"/>
<feOffset/>
<feGaussianBlur stdDeviation="4"/>
<feComposite in2="hardAlpha" operator="out"/>
<feColorMatrix type="matrix" values="0 0 0 0 0.835294 0 0 0 0 0.85098 0 0 0 0 0.866667 0 0 0 0.4 0"/>
<feBlend mode="normal" in2="BackgroundImageFix" result="effect1_dropShadow_0_5100"/>
<feBlend mode="normal" in="SourceGraphic" in2="effect1_dropShadow_0_5100" result="shape"/>
</filter>
</defs>
</svg>
